<?xml version="1.0" encoding="UTF-8"?>
<svg version="1.1" xmlns="http://www.w3.org/2000/svg" width="400" height="400">
<path d="M0 0 C132 0 264 0 400 0 C400 132 400 264 400 400 C268 400 136 400 0 400 C0 268 0 136 0 0 Z " fill="#0E20DB" transform="translate(0,0)"/>
<path d="M0 0 C0.495 0.99 0.495 0.99 1 2 C3.02463255 2.65213292 3.02463255 2.65213292 5 3 C5 3.99 5 4.98 5 6 C6.134375 6.268125 7.26875 6.53625 8.4375 6.8125 C10.2009375 7.4003125 10.2009375 7.4003125 12 8 C13 11 13 11 13 12 C13.66 10.68 14.32 9.36 15 8 C16.32 8.33 17.64 8.66 19 9 C19 8.34 19 7.68 19 7 C23.21896866 4.95101713 26.65372146 4.78792003 31.3125 4.875 C32.56675781 4.89304688 33.82101562 4.91109375 35.11328125 4.9296875 C36.54220703 4.96449219 36.54220703 4.96449219 38 5 C38.495 6.485 38.495 6.485 39 8 C39.598125 8.268125 40.19625 8.53625 40.8125 8.8125 C44.17339619 10.6369865 45.29380178 12.58760356 47 16 C47.98267982 21.87642532 47.32623638 27.13529247 44.3125 32.3046875 C41.26852931 36.23648298 38.11986888 37.72838204 33.34765625 38.33984375 C27.52116622 38.53965479 23.0317549 37.99764122 18 35 C16.8125 32.875 16.8125 32.875 16 31 C13.94999129 30.19471111 13.94999129 30.19471111 12 30 C12.495 31.485 12.495 31.485 13 33 C10.03 33.99 7.06 34.98 4 36 C4 37.32 4 38.64 4 40 C-4.75452515 41.79580003 -10.6255823 41.84579551 -18.34765625 37.09375 C-18.89292969 36.7328125 -19.43820312 36.371875 -20 36 C-20 35.34 -20 34.68 -20 34 C-22.43717258 34.27034634 -22.43717258 34.27034634 -25 35 C-25.66 35.99 -26.32 36.98 -27 38 C-32.91717376 39.97239125 -38.82674785 40.76430741 -45 40 C-48.46998483 37.20975943 -50.21543204 34.03416992 -52 30 C-52.38542969 29.20851562 -52.77085937 28.41703125 -53.16796875 27.6015625 C-54.69675933 22.82140041 -54.56466582 18.78679626 -52.46875 14.25390625 C-51.82682333 13.01590481 -51.17031145 11.78536548 -50.5 10.5625 C-50.16613281 9.92634766 -49.83226562 9.29019531 -49.48828125 8.63476562 C-48.67159878 7.08306893 -47.8375666 5.54052429 -47 4 C-44.04112541 3.91930342 -41.0844341 3.85965335 -38.125 3.8125 C-37.28324219 3.78736328 -36.44148438 3.76222656 -35.57421875 3.73632812 C-34.76855469 3.72666016 -33.96289062 3.71699219 -33.1328125 3.70703125 C-32.01737061 3.68346558 -32.01737061 3.68346558 -30.87939453 3.65942383 C-29.94909424 3.82800903 -29.94909424 3.82800903 -29 4 C-28.01 5.485 -28.01 5.485 -27 7 C-26.34 6.34 -25.68 5.68 -25 5 C-22.375 5.375 -22.375 5.375 -20 6 C-20 5.34 -20 4.68 -20 4 C-15.12494924 1.81905624 -11.41559367 2.03111973 -6.26953125 2.7109375 C-3.88531782 3.06317296 -3.88531782 3.06317296 -1 3 C-0.67 2.01 -0.34 1.02 0 0 Z " fill="#1826CC" transform="translate(305,184)"/>
<path d="M0 0 C5.27507038 2.09546429 8.91731775 6.7832574 12.84155273 10.75463867 C13.77290039 11.66213867 14.70424805 12.56963867 15.66381836 13.50463867 C16.54360352 14.38635742 17.42338867 15.26807617 18.32983398 16.17651367 C19.13590088 16.98185547 19.94196777 17.78719727 20.77246094 18.61694336 C22.52905273 21.00463867 22.52905273 21.00463867 22.94189453 23.64086914 C22.21442857 27.80605273 18.5351041 30.10671074 15.43920898 32.72338867 C12.675585 35.23577411 11.57458173 36.78609948 10.80639648 40.47338867 C11.78199433 45.24063436 13.98344822 47.05771058 17.59155273 50.12963867 C19.78484763 52.0137788 21.59977844 53.8159411 23.52905273 56.00463867 C23.3666821 62.41529644 18.02520156 66.14113439 13.75610352 70.35400391 C12.28166516 71.81455086 10.83283646 73.29753288 9.38452148 74.78393555 C8.45768555 75.70883789 7.53084961 76.63374023 6.57592773 77.58666992 C5.72869141 78.43463135 4.88145508 79.28259277 4.00854492 80.15625 C1.52905273 82.00463867 1.52905273 82.00463867 -1.17773438 82.37475586 C-4.21378611 81.88474687 -4.93553419 80.85864039 -6.78344727 78.44213867 C-9.14555167 75.53414836 -11.48611487 72.9891836 -14.34594727 70.56713867 C-28.16442445 58.80385575 -28.16442445 58.80385575 -28.69555664 52.22070312 C-28.82470671 48.58624027 -28.90473515 44.95328709 -28.97094727 41.31713867 C-29.02508789 40.06223633 -29.07922852 38.80733398 -29.13500977 37.5144043 C-29.28880448 27.08382675 -29.28880448 27.08382675 -25.54125977 22.73901367 C-24.20375871 21.47353972 -22.84523124 20.23006797 -21.47094727 19.00463867 C-19.90758729 17.35526372 -18.3533543 15.69720437 -16.80688477 14.03198242 C-15.15603088 12.33265108 -13.50234626 10.63606546 -11.84594727 8.94213867 C-11.01321289 8.06364258 -10.18047852 7.18514648 -9.32250977 6.2800293 C-8.51297852 5.45567383 -7.70344727 4.63131836 -6.86938477 3.78198242 C-5.78149658 2.65651001 -5.78149658 2.65651001 -4.67163086 1.50830078 C-2.47094727 0.00463867 -2.47094727 0.00463867 0 0 Z " fill="#FBFCFC" transform="translate(76.470947265625,158.995361328125)"/>
<path d="M0 0 C2.64 0 5.28 0 8 0 C9.87824891 1.87824891 9.39102397 5.03935276 9.5625 7.5625 C9.64628906 8.76003906 9.73007813 9.95757812 9.81640625 11.19140625 C9.87699219 12.11824219 9.93757812 13.04507813 10 14 C10.845625 13.484375 11.69125 12.96875 12.5625 12.4375 C16.68843173 10.71211037 18.70426082 10.90653912 23 12 C26.19234403 13.37851219 27.70484565 14.61324603 29.8125 17.375 C31.7833273 23.39120966 32.26069043 30.20499855 30.23828125 36.29296875 C28.41008277 39.68200072 26.2414231 41.99090172 23 44 C18.30244769 44.77910624 14.17149623 44.56231819 9.875 42.5 C9.25625 42.005 8.6375 41.51 8 41 C8 41.66 8 42.32 8 43 C5.36 43 2.72 43 0 43 C0 28.81 0 14.62 0 0 Z " fill="#E8ECFC" transform="translate(131,178)"/>
<path d="M0 0 C0.495 6.435 0.495 6.435 1 13 C1.99 12.34 2.98 11.68 4 11 C7 12 7 12 8 14 C11.3 13.34 14.6 12.68 18 12 C18 11.01 18 10.02 18 9 C20.31 9.33 22.62 9.66 25 10 C25 10.66 25 11.32 25 12 C25.99 12 26.98 12 28 12 C28.495 13.98 28.495 13.98 29 16 C27.83082031 15.96519531 26.66164063 15.93039063 25.45703125 15.89453125 C23.90886859 15.86638284 22.36069032 15.83908381 20.8125 15.8125 C20.04357422 15.78736328 19.27464844 15.76222656 18.48242188 15.73632812 C13.83859521 15.67653637 10.7276836 15.90315516 7 19 C5.64019119 22.07561246 5.64019119 22.07561246 5 25 C6.27875 24.896875 7.5575 24.79375 8.875 24.6875 C9.59429687 24.62949219 10.31359375 24.57148438 11.0546875 24.51171875 C13.39519216 24.12606964 13.39519216 24.12606964 15 21 C16.9453125 20.70703125 16.9453125 20.70703125 19.125 20.8125 C20.40375 20.874375 21.6825 20.93625 23 21 C23.495 23.475 23.495 23.475 24 26 C22.87980469 26.25394531 21.75960937 26.50789063 20.60546875 26.76953125 C19.13267907 27.11662181 17.66002999 27.46430933 16.1875 27.8125 C15.44951172 27.97814453 14.71152344 28.14378906 13.95117188 28.31445312 C8.67847252 29.42436305 8.67847252 29.42436305 5 33 C4.15933891 37.11242317 4.39939121 40.82738284 6.3125 44.5625 C10.65225594 46.88376481 15.1854773 46.58730348 20 46 C22.75909477 45.05171122 22.75909477 45.05171122 25 44 C25 44.66 25 45.32 25 46 C27.64 46 30.28 46 33 46 C32.89008359 41.91611387 32.75946145 37.83314589 32.625 33.75 C32.5940625 32.59113281 32.563125 31.43226563 32.53125 30.23828125 C32.49257812 29.12324219 32.45390625 28.00820312 32.4140625 26.859375 C32.3826416 25.83295898 32.3512207 24.80654297 32.31884766 23.74902344 C32.00363375 21.03132927 31.38967649 19.33075565 30 17 C30.99 17 31.98 17 33 17 C33.28875 17.639375 33.5775 18.27875 33.875 18.9375 C34.82823451 21.15206079 34.82823451 21.15206079 37 22 C36.979375 20.865625 36.95875 19.73125 36.9375 18.5625 C37 15 37 15 38 14 C39.51928038 13.92820036 41.04167482 13.91607993 42.5625 13.9375 C43.38878906 13.94652344 44.21507812 13.95554688 45.06640625 13.96484375 C45.70449219 13.97644531 46.34257812 13.98804688 47 14 C47 14.33 47 14.66 47 15 C44.69 15.33 42.38 15.66 40 16 C39.67 25.9 39.34 35.8 39 46 C38.01 45.01 37.02 44.02 36 43 C35.71125 43.804375 35.4225 44.60875 35.125 45.4375 C34 48 34 48 32 49 C21.78513543 49.63261456 10.18350102 49.9121052 1 45 C0.34 46.32 -0.32 47.64 -1 49 C-2.64671412 48.69217504 -4.29235576 48.37860766 -5.9375 48.0625 C-6.85402344 47.88847656 -7.77054688 47.71445313 -8.71484375 47.53515625 C-11 47 -11 47 -12 46 C-12.07179964 44.48071962 -12.08392007 42.95832518 -12.0625 41.4375 C-12.05347656 40.61121094 -12.04445312 39.78492188 -12.03515625 38.93359375 C-12.02355469 38.29550781 -12.01195312 37.65742188 -12 37 C-12.99 39.31 -13.98 41.62 -15 44 C-16.65 44 -18.3 44 -20 44 C-19.505 43.113125 -19.01 42.22625 -18.5 41.3125 C-15.76091913 34.9516013 -16.13195262 27.26477997 -17.8828125 20.6796875 C-18.74869082 17.85651717 -18.74869082 17.85651717 -21.1875 16.6875 C-28.09941765 14.99792013 -31.69979217 14.78560825 -38 18 C-38.33 13.38 -38.66 8.76 -39 4 C-41.31 3.67 -43.62 3.34 -46 3 C-46 2.67 -46 2.34 -46 2 C-44.52093108 1.97310784 -43.04172517 1.95365379 -41.5625 1.9375 C-40.73878906 1.92589844 -39.91507813 1.91429687 -39.06640625 1.90234375 C-37 2 -37 2 -36 3 C-35.92820036 4.51928038 -35.91607993 6.04167482 -35.9375 7.5625 C-35.94652344 8.38878906 -35.95554688 9.21507812 -35.96484375 10.06640625 C-35.97644531 10.70449219 -35.98804688 11.34257812 -36 12 C-34.79601562 12.12117187 -33.59203125 12.24234375 -32.3515625 12.3671875 C-30.77599234 12.53599859 -29.20047408 12.70529459 -27.625 12.875 C-26.43390625 12.99294922 -26.43390625 12.99294922 -25.21875 13.11328125 C-19.2265625 13.7734375 -19.2265625 13.7734375 -17 16 C-16.67 14.02 -16.34 12.04 -16 10 C-16.66 9.67 -17.32 9.34 -18 9 C-17.67 7.68 -17.34 6.36 -17 5 C-16.01 5.66 -15.02 6.32 -14 7 C-14 7.66 -14 8.32 -14 9 C-13.34 9 -12.68 9 -12 9 C-12 7.02 -12 5.04 -12 3 C-11.34 3 -10.68 3 -10 3 C-10 17.19 -10 31.38 -10 46 C-7.03 46 -4.06 46 -1 46 C-1.495 25.21 -1.495 25.21 -2 4 C-4.31 3.67 -6.62 3.34 -9 3 C-6.17608653 1.48718921 -3.28056633 0 0 0 Z " fill="#2331C3" transform="translate(178,175)"/>
<path d="M0 0 C4.87986993 2.2656539 7.66705454 5.15465173 10 10 C10.96765769 15.88493862 10.33105852 21.12702115 7.3125 26.3046875 C4.25351292 30.25587915 1.09278726 31.70798317 -3.6875 32.375 C-8.22273971 32.57218434 -11.29792725 32.33188894 -15.4375 30.375 C-19.1981784 26.88949319 -21.67490565 24.41498657 -22.3828125 19.15625 C-22.56096164 14.35809977 -22.41347955 10.89057134 -20.375 6.5 C-14.13633057 -0.06702045 -8.87259444 -1.19438771 0 0 Z " fill="#E4E9FA" transform="translate(342,190)"/>
<path d="M0 0 C1.28003906 -0.0103125 2.56007812 -0.020625 3.87890625 -0.03125 C7.92912227 0.57339257 9.57051289 1.63835179 12.4375 4.5 C13.7683911 7.16178221 13.55018993 9.18739396 13.53515625 12.1640625 C13.53193359 13.28554687 13.52871094 14.40703125 13.52539062 15.5625 C13.51701172 16.738125 13.50863281 17.91375 13.5 19.125 C13.49548828 20.30835938 13.49097656 21.49171875 13.48632812 22.7109375 C13.47451467 25.64067507 13.45804258 28.57031272 13.4375 31.5 C10.7975 31.5 8.1575 31.5 5.4375 31.5 C5.4375 30.84 5.4375 30.18 5.4375 29.5 C4.839375 29.995 4.24125 30.49 3.625 31 C-1.08755566 33.21767325 -5.44407859 33.29040091 -10.5625 32.5 C-13.75 30.5625 -13.75 30.5625 -15.5625 27.5 C-16.17352503 24.37821757 -16.36413042 21.59042347 -15.5625 18.5 C-13.34999101 15.3433355 -11.33151894 14.25660938 -7.671875 13.453125 C-6.22144767 13.20259664 -4.76808247 12.96859454 -3.3125 12.75 C-2.56742188 12.62496094 -1.82234375 12.49992188 -1.0546875 12.37109375 C0.77370503 12.06636166 2.60534304 11.78121479 4.4375 11.5 C4.1075 10.18 3.7775 8.86 3.4375 7.5 C2.15875 7.438125 0.88 7.37625 -0.4375 7.3125 C-1.51644531 7.26029297 -1.51644531 7.26029297 -2.6171875 7.20703125 C-3.58011719 7.35205078 -3.58011719 7.35205078 -4.5625 7.5 C-5.5525 8.985 -5.5525 8.985 -6.5625 10.5 C-8.5078125 10.79296875 -8.5078125 10.79296875 -10.6875 10.6875 C-12.605625 10.5946875 -12.605625 10.5946875 -14.5625 10.5 C-14.4375 7.75 -14.4375 7.75 -13.5625 4.5 C-9.07516671 0.72548062 -5.80162857 -0.04683454 0 0 Z " fill="#F5F7FB" transform="translate(197.5625,189.5)"/>
<path d="M0 0 C1.134375 0.020625 2.26875 0.04125 3.4375 0.0625 C3.4375 1.0525 3.4375 2.0425 3.4375 3.0625 C4.035625 2.5675 4.63375 2.0725 5.25 1.5625 C9.93983543 -0.64448138 14.34210245 -0.77143143 19.4375 0.0625 C22.85061667 2.58820633 24.10387768 4.06163304 25.4375 8.0625 C25.51959792 9.83563851 25.54496294 11.61170775 25.53515625 13.38671875 C25.53193359 14.41474609 25.52871094 15.44277344 25.52539062 16.50195312 C25.51701172 17.57380859 25.50863281 18.64566406 25.5 19.75 C25.49548828 20.83345703 25.49097656 21.91691406 25.48632812 23.03320312 C25.47453743 25.70969085 25.45808063 28.38606777 25.4375 31.0625 C22.4675 31.0625 19.4975 31.0625 16.4375 31.0625 C16.37691406 29.73734375 16.31632812 28.4121875 16.25390625 27.046875 C16.16948036 25.30207318 16.08483338 23.55728205 16 21.8125 C15.96068359 20.93980469 15.92136719 20.06710938 15.88085938 19.16796875 C15.83896484 18.32363281 15.79707031 17.47929687 15.75390625 16.609375 C15.71724854 15.83432617 15.68059082 15.05927734 15.64282227 14.26074219 C15.44146985 12.1050024 15.02020703 10.14448525 14.4375 8.0625 C10.43495544 7.97068866 10.43495544 7.97068866 6.4375 8.0625 C4.78670558 9.71329442 5.21200553 11.69986179 5.12109375 13.97265625 C5.07919922 14.96201172 5.03730469 15.95136719 4.99414062 16.97070312 C4.95482422 18.01162109 4.91550781 19.05253906 4.875 20.125 C4.83181641 21.16978516 4.78863281 22.21457031 4.74414062 23.29101562 C4.63768775 25.88136884 4.5356724 28.47182186 4.4375 31.0625 C1.4675 31.0625 -1.5025 31.0625 -4.5625 31.0625 C-4.58715622 26.80835377 -4.60533899 22.55424502 -4.61743164 18.30004883 C-4.62247101 16.85179927 -4.62930253 15.40355483 -4.63793945 13.95532227 C-4.65002247 11.87775412 -4.65573211 9.80025303 -4.66015625 7.72265625 C-4.66539307 6.47105713 -4.67062988 5.21945801 -4.67602539 3.92993164 C-4.50846074 -0.30242701 -4.35818563 0.0764594 0 0 Z " fill="#EEF0FB" transform="translate(221.5625,189.9375)"/>
<path d="M0 0 C3.81128383 2.04175919 5.60679758 3.41019637 8 7 C8 8.32 8 9.64 8 11 C2.66494845 11.3556701 2.66494845 11.3556701 0 11 C-1.33333333 9.66666667 -2.66666667 8.33333333 -4 7 C-7.66364808 6.9872962 -7.66364808 6.9872962 -11 8 C-12.35827701 10.71655403 -12.1323445 12.90789406 -12.125 15.9375 C-12.12757813 16.99839844 -12.13015625 18.05929688 -12.1328125 19.15234375 C-12.12569346 22.07573057 -12.12569346 22.07573057 -11 25 C-6.47043516 25.41922376 -6.47043516 25.41922376 -2.6875 23.125 C-0.97049329 21.11266198 -0.97049329 21.11266198 0 19 C2.64 19 5.28 19 8 19 C7.51176471 25.34705882 7.51176471 25.34705882 5.1875 28.3125 C-0.27299186 32.52487943 -5.24617205 32.77438666 -12 32 C-16.41071082 29.99513145 -19.0711859 27.41170944 -21.30859375 23.05859375 C-23.05073189 17.87154968 -22.61013401 12.79650571 -20.875 7.6875 C-15.32879217 -0.26206456 -9.24693125 -1.88390046 0 0 Z " fill="#E7ECFC" transform="translate(308,190)"/>
<path d="M0 0 C2.93388235 1.82552679 4.83613657 3.9533515 5.89453125 7.234375 C5.89453125 8.224375 5.89453125 9.214375 5.89453125 10.234375 C0.58893957 10.58808111 0.58893957 10.58808111 -2.10546875 10.234375 C-3.47857582 8.94203893 -4.81581699 7.61000354 -6.10546875 6.234375 C-9.27330075 5.89989241 -9.27330075 5.89989241 -12.10546875 6.234375 C-15.0301193 10.79682986 -15.4972901 14.02496575 -14.6796875 19.23828125 C-14.19869282 21.40807751 -14.19869282 21.40807751 -12.35546875 23.359375 C-9.39316026 24.51138386 -8.04874684 24.4418737 -5.10546875 23.234375 C-4.67234375 22.38875 -4.23921875 21.543125 -3.79296875 20.671875 C-3.23609375 19.8675 -2.67921875 19.063125 -2.10546875 18.234375 C0.68488183 17.76746375 3.04168441 18.0005351 5.89453125 18.234375 C5.61840442 22.19219286 5.15399777 23.93394008 2.51953125 26.984375 C-2.36065768 31.16739408 -5.11719314 31.67904836 -11.37890625 31.546875 C-15.24010973 31.10433019 -17.27118352 29.86127351 -20.10546875 27.234375 C-24.16185229 21.86240761 -25.65888129 17.98600805 -25.10546875 11.234375 C-23.71986923 6.99048162 -21.78144337 3.92768231 -18.66796875 0.734375 C-12.88466262 -1.70070126 -5.99109555 -2.1785802 0 0 Z " fill="#EFF3FB" transform="translate(276.10546875,190.765625)"/>
<path d="M0 0 C2.64 0 5.28 0 8 0 C9 1 9 1 9.11352539 4.96899414 C9.1133662 6.74105607 9.10766785 8.5131226 9.09765625 10.28515625 C9.0962413 11.21597519 9.09482635 12.14679413 9.09336853 13.1058197 C9.08775172 16.09141191 9.0751964 19.07693029 9.0625 22.0625 C9.05748716 24.08137913 9.05292388 26.10025943 9.04882812 28.11914062 C9.03777683 33.07945572 9.02050095 38.03971532 9 43 C6.03 43 3.06 43 0 43 C0 28.81 0 14.62 0 0 Z " fill="#EAEDFA" transform="translate(168,178)"/>
<path d="M0 0 C3.63896543 0.8005724 5.30531862 2.62587445 7.9140625 5.24609375 C8.80867188 6.11621094 9.70328125 6.98632812 10.625 7.8828125 C12.5390625 10.55859375 12.5390625 10.55859375 12.59375 13.08984375 C11.28267884 16.15872142 9.64929893 18.014765 7.2890625 20.37109375 C6.52078125 21.16128906 5.7525 21.95148438 4.9609375 22.765625 C2.5390625 24.55859375 2.5390625 24.55859375 -0.1015625 24.953125 C-3.72974729 24.34642523 -5.08735251 22.28821649 -7.4609375 19.55859375 C-7.94304687 19.05457031 -8.42515625 18.55054688 -8.921875 18.03125 C-10.3359375 16.49609375 -10.3359375 16.49609375 -12.4609375 13.55859375 C-12.24858165 9.61367543 -9.8862782 7.51936942 -7.2109375 4.80859375 C-6.44265625 4.009375 -5.674375 3.21015625 -4.8828125 2.38671875 C-2.4609375 0.55859375 -2.4609375 0.55859375 0 0 Z " fill="#A2E7FB" transform="translate(105.4609375,187.44140625)"/>
<path d="M0 0 C0 0.66 0 1.32 0 2 C0.66 2.33 1.32 2.66 2 3 C2.40729228 5.32156597 2.74438677 7.6568787 3 10 C3.99 10 4.98 10 6 10 C6.33 8.68 6.66 7.36 7 6 C7.66 6 8.32 6 9 6 C9 5.34 9 4.68 9 4 C9.66 4.33 10.32 4.66 11 5 C10.566875 5.74443359 10.566875 5.74443359 10.125 6.50390625 C7.57081984 11.17770119 6.22269667 14.55887668 7 20 C8.57256632 23.96815801 10.63636447 27.45454671 13 31 C10.36 30.34 7.72 29.68 5 29 C4.731875 29.804375 4.46375 30.60875 4.1875 31.4375 C1.4723971 34.61804911 0.37189945 34.46812935 -3.6875 34.8125 C-5.45739906 34.89743679 -7.228373 34.96691359 -9 35 C-11.28571429 19.57142857 -11.28571429 19.57142857 -9 15 C-9.27942455 13.32345271 -9.60828247 11.65391846 -10 10 C-11.32 10 -12.64 10 -14 10 C-13.34 10.33 -12.68 10.66 -12 11 C-12 11.66 -12 12.32 -12 13 C-13.98 13.33 -15.96 13.66 -18 14 C-17.67 17.3 -17.34 20.6 -17 24 C-16.34 23.34 -15.68 22.68 -15 22 C-14.67 23.98 -14.34 25.96 -14 28 C-14.66 28 -15.32 28 -16 28 C-16.144375 28.804375 -16.28875 29.60875 -16.4375 30.4375 C-17 33 -17 33 -18 34 C-19.46948963 34.28469564 -20.95191805 34.5044763 -22.4375 34.6875 C-23.24058594 34.79449219 -24.04367188 34.90148437 -24.87109375 35.01171875 C-27 35 -27 35 -29 33 C-28 32 -28 32 -25.93359375 31.90234375 C-24.69802734 31.91974609 -24.69802734 31.91974609 -23.4375 31.9375 C-22.61121094 31.94652344 -21.78492188 31.95554688 -20.93359375 31.96484375 C-20.29550781 31.97644531 -19.65742188 31.98804688 -19 32 C-19.01047363 31.34402832 -19.02094727 30.68805664 -19.03173828 30.01220703 C-19.07322503 27.04984342 -19.09930262 24.08754084 -19.125 21.125 C-19.14175781 20.09246094 -19.15851563 19.05992187 -19.17578125 17.99609375 C-19.18222656 17.00996094 -19.18867188 16.02382812 -19.1953125 15.0078125 C-19.20578613 14.09660645 -19.21625977 13.18540039 -19.22705078 12.24658203 C-19 10 -19 10 -17 8 C-14.31160615 7.73008094 -11.70858064 7.91262643 -9 8 C-6.45251754 12.84422847 -6.77183572 17.49160376 -6.875 22.8125 C-6.88402344 23.69615234 -6.89304688 24.57980469 -6.90234375 25.49023438 C-6.92580363 27.66027359 -6.96167135 29.83017247 -7 32 C-4.03 32 -1.06 32 2 32 C1.91870118 28.29079771 1.80589399 24.58318901 1.6875 20.875 C1.66494141 19.82828125 1.64238281 18.7815625 1.61914062 17.703125 C1.42563568 12.14425567 1.23536509 7.74520213 -2 3 C-4.55919182 1.72040409 -6.45484028 1.83183464 -9.3125 1.8125 C-10.72982422 1.79123047 -10.72982422 1.79123047 -12.17578125 1.76953125 C-15.14406882 2.01175665 -17.30867165 2.75973393 -20 4 C-19.67 2.68 -19.34 1.36 -19 0 C-4.90322581 -2.4516129 -4.90322581 -2.4516129 0 0 Z " fill="#1623BC" transform="translate(245,189)"/>
<path d="M0 0 C0.33 0 0.66 0 1 0 C1 1.65 1 3.3 1 5 C2.32 4.34 3.64 3.68 5 3 C5 3.66 5 4.32 5 5 C5.99 5 6.98 5 8 5 C8 5.66 8 6.32 8 7 C7.26523438 7.25007812 6.53046875 7.50015625 5.7734375 7.7578125 C2.77187129 9.10217596 0.95967124 10.57504507 -1.375 12.875 C-2.43847656 13.89207031 -2.43847656 13.89207031 -3.5234375 14.9296875 C-5.22890467 16.86259604 -5.22890467 16.86259604 -4.875 19.1015625 C-3.53769735 22.00303163 -1.29575467 23.81356698 1 26 C1.474375 26.763125 1.94875 27.52625 2.4375 28.3125 C3.96408945 30.35920366 3.96408945 30.35920366 7.0625 30.125 C8.031875 30.08375 9.00125 30.0425 10 30 C10.66 30.66 11.32 31.32 12 32 C10.1875 34.5 10.1875 34.5 8 37 C7.01 37 6.02 37 5 37 C5 35.68 5 34.36 5 33 C4.34 32.67 3.68 32.34 3 32 C2.92523438 32.556875 2.85046875 33.11375 2.7734375 33.6875 C1.70588906 39.8834674 -0.31310728 44.67282365 -5 49 C-7.42333177 50.17038669 -9.30782187 50.5692515 -12 51 C-9.00700184 47.4126476 -6.0401155 44.00241066 -2.5625 40.875 C0.25777224 38.350261 0.25777224 38.350261 0.0078125 35.65625 C-1.56483444 31.51128907 -4.84444993 29.08970688 -8.13867188 26.28125 C-10.90010042 23.74782932 -11.9582488 22.21475474 -12.6796875 18.50390625 C-11.82803038 14.11346698 -9.82446663 12.12175255 -6.5625 9.3125 C-1.92631564 5.47949465 -1.92631564 5.47949465 0 0 Z " fill="#1631C8" transform="translate(99,181)"/>
<path d="M0 0 C2 1 2 1 2 1 Z M14 -5 C13.67 -4.01 13.34 -3.02 13 -2 C8.38 -1.67 3.76 -1.34 -1 -1 C-0.67 0.27875 -0.34 1.5575 0 2.875 C0.55182557 5.01332407 1 6.78970467 1 9 C1.1546875 8.1028125 1.1546875 8.1028125 1.3125 7.1875 C2.10636936 4.66155205 2.95572409 3.65114593 5 2 C8.50147041 0.8328432 11.32670036 0.86642547 15 1 C15.66 1.33 16.32 1.66 17 2 C17.625 4.0625 17.625 4.0625 18 6 C17.34 6 16.68 6 16 6 C16 6.66 16 7.32 16 8 C15.34 8.639375 14.68 9.27875 14 9.9375 C11.65192708 11.88012332 11.65192708 11.88012332 12 15 C8.02801769 16.98599116 3.31962529 16.52906073 -1 16 C-4.1875 14.0625 -4.1875 14.0625 -6 11 C-6.61102503 7.87821757 -6.80163042 5.09042347 -6 2 C-2.95734325 -2.14907739 0.19257387 -2.82323935 5.125 -3.75 C6.36507812 -3.99234375 7.60515625 -4.2346875 8.8828125 -4.484375 C12 -5 12 -5 14 -5 Z " fill="#EFF2FD" transform="translate(188,206)"/>
<path d="M0 0 C0.33 4.29 0.66 8.58 1 13 C1.99 12.34 2.98 11.68 4 11 C7 12 7 12 8 14 C11.3 13.34 14.6 12.68 18 12 C18 11.01 18 10.02 18 9 C20.31 9.33 22.62 9.66 25 10 C25 10.66 25 11.32 25 12 C25.99 12 26.98 12 28 12 C28.495 13.98 28.495 13.98 29 16 C27.83082031 15.96519531 26.66164062 15.93039063 25.45703125 15.89453125 C23.90886859 15.86638284 22.36069032 15.83908381 20.8125 15.8125 C20.04357422 15.78736328 19.27464844 15.76222656 18.48242188 15.73632812 C13.68729698 15.67458832 11.0395535 16.18634391 7 19 C6.01 19 5.02 19 4 19 C4 21.64 4 24.28 4 27 C4.99 27 5.98 27 7 27 C7 27.66 7 28.32 7 29 C5.35 29 3.7 29 2 29 C2 29.33 2 29.66 2 30 C2.33 30 2.66 30 3 30 C3 32.31 3 34.62 3 37 C2.34 37 1.68 37 1 37 C1.37125 37.9075 1.7425 38.815 2.125 39.75 C3 43 3 43 2.3125 45.25 C1 47 1 47 -2 49 C-5.6875 48.625 -5.6875 48.625 -9 48 C-9 47.67 -9 47.34 -9 47 C-5.535 46.505 -5.535 46.505 -2 46 C-2 32.14 -2 18.28 -2 4 C-4.31 3.67 -6.62 3.34 -9 3 C-6.17608653 1.48718921 -3.28056633 0 0 0 Z " fill="#1222CE" transform="translate(178,175)"/>
<path d="M0 0 C1.32 0 2.64 0 4 0 C5.87195076 2.80792614 6.07450196 4.84886624 5.9375 8.125 C5.958125 9.40375 5.97875 10.6825 6 12 C6.99 12.66 7.98 13.32 9 14 C9 14.66 9 15.32 9 16 C8.34 16 7.68 16 7 16 C6.04738513 20.76307437 5.91666643 25.1666528 6 30 C6.66 30 7.32 30 8 30 C9.33333333 31.33333333 10.66666667 32.66666667 12 34 C12.99 34.33 13.98 34.66 15 35 C15.33 35.99 15.66 36.98 16 38 C13.03 38.495 13.03 38.495 10 39 C10 38.34 10 37.68 10 37 C5.05 37.495 5.05 37.495 0 38 C0 25.46 0 12.92 0 0 Z " fill="#FAFBF9" transform="translate(133,181)"/>
<path d="M0 0 C2 2 2 2 2.265625 4.20703125 C2.20211161 14.79788839 2.20211161 14.79788839 -1 18 C-6.79588336 18.46740995 -6.79588336 18.46740995 -9 18 C-11.27657421 15.81039604 -11.93959448 14.44752044 -12.36328125 11.30859375 C-12.34652344 10.36113281 -12.32976562 9.41367188 -12.3125 8.4375 C-12.30863281 7.48746094 -12.30476563 6.53742188 -12.30078125 5.55859375 C-12 3 -12 3 -10 0 C-6.25976024 -1.24674659 -3.83399823 -0.76679965 0 0 Z " fill="#1626D0" transform="translate(341,197)"/>
<path d="M0 0 C2 2 2 2 2.265625 4.6796875 C2.26046875 5.73414063 2.2553125 6.78859375 2.25 7.875 C2.25515625 8.92429688 2.2603125 9.97359375 2.265625 11.0546875 C2.00401665 13.95546242 1.64269075 15.61616258 0 18 C-2.8125 19.0625 -2.8125 19.0625 -6 19 C-8.875 17.25 -8.875 17.25 -11 14 C-11.69516945 10.20459905 -11.7223902 6.79254856 -11 3 C-7.67998327 -1.29649224 -5.07097168 -1.57763563 0 0 Z " fill="#0F20D6" transform="translate(151,197)"/>
<path d="M0 0 C1.875 1.375 1.875 1.375 3 3 C3 3.66 3 4.32 3 5 C5.31 5 7.62 5 10 5 C10.33 5.66 10.66 6.32 11 7 C9.35 7.33 7.7 7.66 6 8 C6 8.66 6 9.32 6 10 C5.34 10 4.68 10 4 10 C3.9175 10.763125 3.835 11.52625 3.75 12.3125 C3 15 3 15 1.3125 16.875 C-1.86249229 18.41959084 -3.66802549 18.0140792 -7 17 C-9.30569339 13.54145992 -9.29761619 12.02062492 -9.3125 7.9375 C-9.32925781 6.87402344 -9.34601563 5.81054688 -9.36328125 4.71484375 C-9.24339844 3.81894531 -9.12351562 2.92304688 -9 2 C-5.53076119 -0.31282587 -4.07794425 -0.42478586 0 0 Z " fill="#101EDC" transform="translate(304,198)"/>
<path d="M0 0 C2.64 0 5.28 0 8 0 C9.87824891 1.87824891 9.39102397 5.03935276 9.5625 7.5625 C9.64628906 8.76003906 9.73007813 9.95757812 9.81640625 11.19140625 C9.87699219 12.11824219 9.93757812 13.04507813 10 14 C10.99 13.34 11.98 12.68 13 12 C13.99 12.33 14.98 12.66 16 13 C15.67 13.99 15.34 14.98 15 16 C17.31 16.66 19.62 17.32 22 18 C21.67 18.99 21.34 19.98 21 21 C20.443125 20.649375 19.88625 20.29875 19.3125 19.9375 C16.41468152 18.76270872 14.9482975 19.06895868 12 20 C9.41073669 22.58926331 9.62601957 24.02705279 9.375 27.625 C9.30023438 28.62789062 9.22546875 29.63078125 9.1484375 30.6640625 C9.09945312 31.43492187 9.05046875 32.20578125 9 33 C8.67 33 8.34 33 8 33 C7.77695559 31.25181409 7.5721355 29.50129677 7.375 27.75 C7.25898438 26.77546875 7.14296875 25.8009375 7.0234375 24.796875 C6.99887463 21.86570607 7.4687283 20.45471036 9 18 C9.66 18.33 10.32 18.66 11 19 C10.04134491 16.66924071 10.04134491 16.66924071 7 15 C6.93526417 12.99318913 6.88068749 10.98281286 6.9609375 8.9765625 C7.00330274 6.83288127 6.67761489 5.03284468 6 3 C4.68 3 3.36 3 2 3 C2 15.54 2 28.08 2 41 C3.98 41 5.96 41 8 41 C8 41.66 8 42.32 8 43 C5.36 43 2.72 43 0 43 C0 28.81 0 14.62 0 0 Z " fill="#CDD7FD" transform="translate(131,178)"/>
<path d="M0 0 C1.25425781 0.01804688 2.50851562 0.03609375 3.80078125 0.0546875 C5.22970703 0.08949219 5.22970703 0.08949219 6.6875 0.125 C7.1825 1.115 7.1825 1.115 7.6875 2.125 C6.74648438 2.07859375 5.80546875 2.0321875 4.8359375 1.984375 C-2.884403 1.42511013 -2.884403 1.42511013 -10 3.8125 C-14.11631315 7.92881315 -15.74247214 11.21335308 -15.75 17.0625 C-15.63090807 22.44148541 -14.80895656 25.09877729 -11.3125 29.125 C-10.9825 29.785 -10.6525 30.445 -10.3125 31.125 C-12.25 30.3125 -12.25 30.3125 -14.3125 29.125 C-14.6425 28.135 -14.9725 27.145 -15.3125 26.125 C-17.32758358 25.39176204 -17.32758358 25.39176204 -19.3125 25.125 C-18.9825 26.115 -18.6525 27.105 -18.3125 28.125 C-19.6325 27.795 -20.9525 27.465 -22.3125 27.125 C-21.3225 23.66 -21.3225 23.66 -20.3125 20.125 C-22.9525 20.125 -25.5925 20.125 -28.3125 20.125 C-27.6525 19.795 -26.9925 19.465 -26.3125 19.125 C-26.3125 18.465 -26.3125 17.805 -26.3125 17.125 C-24.9925 16.465 -23.6725 15.805 -22.3125 15.125 C-23.405625 15.0425 -24.49875 14.96 -25.625 14.875 C-29.89894251 14.00572356 -29.89368176 13.38514632 -32.3125 10.125 C-35.43873255 9.80599668 -37.48366253 9.71058126 -40.3125 11.125 C-39.9825 10.135 -39.6525 9.145 -39.3125 8.125 C-36.0625 7.375 -36.0625 7.375 -32.3125 7.125 C-30.97916667 8.45833333 -29.64583333 9.79166667 -28.3125 11.125 C-25.32666334 11.78042756 -22.36265985 11.99465129 -19.3125 12.125 C-19.18875 11.3825 -19.065 10.64 -18.9375 9.875 C-18.35763299 7.32358515 -17.57541261 5.3982427 -16.3125 3.125 C-14.9925 3.455 -13.6725 3.785 -12.3125 4.125 C-12.3125 3.465 -12.3125 2.805 -12.3125 2.125 C-8.09353134 0.07601713 -4.65877854 -0.08707997 0 0 Z " fill="#1524C3" transform="translate(336.3125,188.875)"/>
<path d="M0 0 C1.05445313 -0.00515625 2.10890625 -0.0103125 3.1953125 -0.015625 C5.875 0.25 5.875 0.25 7.875 2.25 C8 4.875 8 4.875 7.875 7.25 C7.029375 6.899375 6.18375 6.54875 5.3125 6.1875 C1.32588789 4.85593131 1.32588789 4.85593131 -5.125 6.25 C-5.785 10.87 -6.445 15.49 -7.125 20.25 C-7.785 19.92 -8.445 19.59 -9.125 19.25 C-9.75 16.6875 -9.75 16.6875 -10.125 14.25 C-11.115 14.25 -12.105 14.25 -13.125 14.25 C-13.455 16.56 -13.785 18.87 -14.125 21.25 C-14.455 21.25 -14.785 21.25 -15.125 21.25 C-15.98573099 8.35816258 -15.98573099 8.35816258 -12.875 4.5625 C-8.49294737 0.8775921 -5.75592285 -0.02828463 0 0 Z " fill="#EEF3FD" transform="translate(336.125,189.75)"/>
<path d="M0 0 C1.23556641 0.01740234 1.23556641 0.01740234 2.49609375 0.03515625 C3.32238281 0.04417969 4.14867187 0.05320313 5 0.0625 C5.63808594 0.07410156 6.27617187 0.08570313 6.93359375 0.09765625 C6.93359375 0.42765625 6.93359375 0.75765625 6.93359375 1.09765625 C4.62359375 1.42765625 2.31359375 1.75765625 -0.06640625 2.09765625 C-0.39640625 11.99765625 -0.72640625 21.89765625 -1.06640625 32.09765625 C-2.05640625 31.10765625 -3.04640625 30.11765625 -4.06640625 29.09765625 C-4.49953125 30.30421875 -4.49953125 30.30421875 -4.94140625 31.53515625 C-6.06640625 34.09765625 -6.06640625 34.09765625 -8.06640625 35.09765625 C-10.07441081 34.81653561 -12.07654676 34.48697658 -14.06640625 34.09765625 C-14.06640625 33.76765625 -14.06640625 33.43765625 -14.06640625 33.09765625 C-11.75640625 33.09765625 -9.44640625 33.09765625 -7.06640625 33.09765625 C-7.17628761 28.84712361 -7.30691829 24.5974759 -7.44140625 20.34765625 C-7.47234375 19.14109375 -7.50328125 17.93453125 -7.53515625 16.69140625 C-7.57382813 15.53125 -7.6125 14.37109375 -7.65234375 13.17578125 C-7.68376465 12.1074707 -7.71518555 11.03916016 -7.74755859 9.93847656 C-8.05840773 7.16892027 -8.64311157 5.46482004 -10.06640625 3.09765625 C-9.07640625 3.09765625 -8.08640625 3.09765625 -7.06640625 3.09765625 C-6.77765625 3.73703125 -6.48890625 4.37640625 -6.19140625 5.03515625 C-5.23817174 7.24971704 -5.23817174 7.24971704 -3.06640625 8.09765625 C-3.08703125 6.96328125 -3.10765625 5.82890625 -3.12890625 4.66015625 C-3.04967763 0.14412465 -3.04967763 0.14412465 0 0 Z " fill="#1A29BA" transform="translate(218.06640625,188.90234375)"/>
<path d="M0 0 C1.47906892 -0.02689216 2.95827483 -0.04634621 4.4375 -0.0625 C5.26121094 -0.07410156 6.08492187 -0.08570313 6.93359375 -0.09765625 C9 0 9 0 10 1 C10.07179964 2.51928038 10.08392007 4.04167482 10.0625 5.5625 C10.05347656 6.38878906 10.04445312 7.21507812 10.03515625 8.06640625 C10.02355469 8.70449219 10.01195312 9.34257812 10 10 C11.20398438 10.12117187 12.40796875 10.24234375 13.6484375 10.3671875 C15.22400766 10.53599859 16.79952592 10.70529459 18.375 10.875 C19.56609375 10.99294922 19.56609375 10.99294922 20.78125 11.11328125 C26.7734375 11.7734375 26.7734375 11.7734375 29 14 C29.33 12.02 29.66 10.04 30 8 C29.34 7.67 28.68 7.34 28 7 C28.33 5.68 28.66 4.36 29 3 C29.99 3.66 30.98 4.32 32 5 C32 5.66 32 6.32 32 7 C32.66 7 33.32 7 34 7 C34 15.33333333 34 23.66666667 34 32 C33.34 31.67 32.68 31.34 32 31 C31.92641712 29.27227405 31.916498 27.54166463 31.9375 25.8125 C31.6890463 22.33866556 31.53032978 20.59191646 29.18359375 17.97265625 C24.7195022 14.8832934 20.52187406 12.89774307 15 13 C12.48430412 13.79078849 10.36505577 14.79333889 8 16 C7.67 11.38 7.34 6.76 7 2 C4.69 1.67 2.38 1.34 0 1 C0 0.67 0 0.34 0 0 Z " fill="#0F21D4" transform="translate(132,177)"/>
<path d="M0 0 C0.99 0.33 1.98 0.66 3 1 C2.55084229 1.4439209 2.10168457 1.8878418 1.63891602 2.34521484 C-0.38915607 4.35253603 -2.41336416 6.36370999 -4.4375 8.375 C-5.14455078 9.07367188 -5.85160156 9.77234375 -6.58007812 10.4921875 C-7.25361328 11.1625 -7.92714844 11.8328125 -8.62109375 12.5234375 C-9.2442749 13.14138184 -9.86745605 13.75932617 -10.50952148 14.39599609 C-14.72249533 18.92985984 -13.22689765 26.00514602 -13.25 31.8125 C-13.270625 33.09705078 -13.29125 34.38160156 -13.3125 35.70507812 C-13.31765625 36.94322266 -13.3228125 38.18136719 -13.328125 39.45703125 C-13.3374707 40.59116455 -13.34681641 41.72529785 -13.35644531 42.89379883 C-12.66848824 48.88892064 -8.99402657 52.23958451 -4.8125 56.3125 C-3.91144531 57.19550781 -3.01039062 58.07851562 -2.08203125 58.98828125 C-1.39496094 59.65214844 -0.70789062 60.31601563 0 61 C-0.33 61.66 -0.66 62.32 -1 63 C-1.66 63 -2.32 63 -3 63 C-3 62.34 -3 61.68 -3 61 C-4.65 60.67 -6.3 60.34 -8 60 C-8 58.35 -8 56.7 -8 55 C-9.65 54.67 -11.3 54.34 -13 54 C-14.85123268 49.28827274 -15.29431494 45.05334126 -15.265625 40.046875 C-15.26753845 39.3054425 -15.2694519 38.56401001 -15.27142334 37.80010986 C-15.27277707 36.24368955 -15.2691377 34.68725763 -15.26074219 33.13085938 C-15.24996948 30.74323486 -15.26069578 28.35635229 -15.2734375 25.96875 C-15.27211695 24.45312334 -15.26955674 22.93749714 -15.265625 21.421875 C-15.27169769 20.3500296 -15.27169769 20.3500296 -15.27789307 19.25653076 C-15.2299656 14.2299656 -15.2299656 14.2299656 -13 12 C-12.67 11.34 -12.34 10.68 -12 10 C-11.34 10.33 -10.68 10.66 -10 11 C-10.33 9.02 -10.66 7.04 -11 5 C-9.35 3.68 -7.7 2.36 -6 1 C-5.67 1.66 -5.34 2.32 -5 3 C-4.01 3.33 -3.02 3.66 -2 4 C-1.67 3.01 -1.34 2.02 -1 1 C-0.67 0.67 -0.34 0.34 0 0 Z " fill="#2534CE" transform="translate(62,168)"/>
<path d="M0 0 C2.01822917 0.06510417 4.03645833 0.13020833 6.0546875 0.1953125 C8.60216996 5.03954097 8.28285178 9.68691626 8.1796875 15.0078125 C8.17066406 15.89146484 8.16164062 16.77511719 8.15234375 17.68554688 C8.12888387 19.85558609 8.09301615 22.02548497 8.0546875 24.1953125 C10.6946875 24.1953125 13.3346875 24.1953125 16.0546875 24.1953125 C16.0546875 24.5253125 16.0546875 24.8553125 16.0546875 25.1953125 C14.7759375 25.3396875 13.4971875 25.4840625 12.1796875 25.6328125 C9.79775856 25.90173996 8.21016059 26.11757596 6.0546875 27.1953125 C3.76897321 11.76674107 3.76897321 11.76674107 6.0546875 7.1953125 C5.77526295 5.51876521 5.44640503 3.84923096 5.0546875 2.1953125 C3.7346875 2.1953125 2.4146875 2.1953125 1.0546875 2.1953125 C1.7146875 2.5253125 2.3746875 2.8553125 3.0546875 3.1953125 C3.0546875 3.8553125 3.0546875 4.5153125 3.0546875 5.1953125 C1.0746875 5.5253125 -0.9053125 5.8553125 -2.9453125 6.1953125 C-2.6153125 9.4953125 -2.2853125 12.7953125 -1.9453125 16.1953125 C-1.2853125 15.5353125 -0.6253125 14.8753125 0.0546875 14.1953125 C0.3846875 16.1753125 0.7146875 18.1553125 1.0546875 20.1953125 C0.3946875 20.1953125 -0.2653125 20.1953125 -0.9453125 20.1953125 C-1.0896875 20.9996875 -1.2340625 21.8040625 -1.3828125 22.6328125 C-1.9453125 25.1953125 -1.9453125 25.1953125 -2.9453125 26.1953125 C-4.41480213 26.48000814 -5.89723055 26.6997888 -7.3828125 26.8828125 C-8.18589844 26.98980469 -8.98898438 27.09679687 -9.81640625 27.20703125 C-11.9453125 27.1953125 -11.9453125 27.1953125 -13.9453125 25.1953125 C-12.9453125 24.1953125 -12.9453125 24.1953125 -10.87890625 24.09765625 C-9.64333984 24.11505859 -9.64333984 24.11505859 -8.3828125 24.1328125 C-7.55652344 24.14183594 -6.73023438 24.15085938 -5.87890625 24.16015625 C-4.92177734 24.17755859 -4.92177734 24.17755859 -3.9453125 24.1953125 C-3.95578613 23.53934082 -3.96625977 22.88336914 -3.97705078 22.20751953 C-4.01853753 19.24515592 -4.04461512 16.28285334 -4.0703125 13.3203125 C-4.08707031 12.28777344 -4.10382813 11.25523437 -4.12109375 10.19140625 C-4.12753906 9.20527344 -4.13398438 8.21914062 -4.140625 7.203125 C-4.15109863 6.29191895 -4.16157227 5.38071289 -4.17236328 4.44189453 C-3.8731734 1.48152328 -3.0378827 0.3050083 0 0 Z " fill="#2230B7" transform="translate(229.9453125,196.8046875)"/>
<path d="M0 0 C-0.33 1.65 -0.66 3.3 -1 5 C-0.34 4.67 0.32 4.34 1 4 C2.70363822 3.77377919 4.41328701 3.59111527 6.125 3.4375 C7.03507812 3.35371094 7.94515625 3.26992187 8.8828125 3.18359375 C9.93082031 3.09271484 9.93082031 3.09271484 11 3 C11.33 4.65 11.66 6.3 12 8 C8.42355152 9.2380014 5.66305234 8.74926071 2 8 C2 8.66 2 9.32 2 10 C-0.77100394 11.38550197 -2.9334706 11.1877467 -6 11 C-6.99 10.34 -7.98 9.68 -9 9 C-9.37650785 5.54867807 -9.60658065 3.07836561 -7.875 0 C-5.06863762 -1.49672661 -2.99840718 -0.73294398 0 0 Z " fill="#0E20DB" transform="translate(271,199)"/>
<path d="M0 0 C0.33 0 0.66 0 1 0 C1.33 5.61 1.66 11.22 2 17 C3.98 17 5.96 17 8 17 C8 15.02 8 13.04 8 11 C8.33 11 8.66 11 9 11 C9 17.27 9 23.54 9 30 C6.03 30 3.06 30 0 30 C0 20.1 0 10.2 0 0 Z " fill="#D6DAF8" transform="translate(217,191)"/>
<path d="M0 0 C4.9252372 1.07236891 7.77189033 3.43713238 10.51171875 7.546875 C10.51171875 8.866875 10.51171875 10.186875 10.51171875 11.546875 C5.1766672 11.9025451 5.1766672 11.9025451 2.51171875 11.546875 C1.17838542 10.21354167 -0.15494792 8.88020833 -1.48828125 7.546875 C-6.54521024 7.68969008 -6.54521024 7.68969008 -10.48828125 10.546875 C-10.48828125 9.226875 -10.48828125 7.906875 -10.48828125 6.546875 C-7.02328125 6.051875 -7.02328125 6.051875 -3.48828125 5.546875 C-3.15828125 4.556875 -2.82828125 3.566875 -2.48828125 2.546875 C-1.49828125 2.876875 -0.50828125 3.206875 0.51171875 3.546875 C0.51171875 2.886875 0.51171875 2.226875 0.51171875 1.546875 C-3.11828125 1.546875 -6.74828125 1.546875 -10.48828125 1.546875 C-6.5897849 -1.05212257 -4.50656016 -0.55262927 0 0 Z " fill="#E2E9FB" transform="translate(305.48828125,189.453125)"/>
<path d="M0 0 C1.03253906 0.02707031 1.03253906 0.02707031 2.0859375 0.0546875 C3.7662381 0.10136252 5.44581163 0.17309061 7.125 0.25 C7.125 0.91 7.125 1.57 7.125 2.25 C3.825 2.25 0.525 2.25 -2.875 2.25 C-3.205 2.91 -3.535 3.57 -3.875 4.25 C-3.24851563 4.31058594 -2.62203125 4.37117187 -1.9765625 4.43359375 C-1.15929687 4.51738281 -0.34203125 4.60117188 0.5 4.6875 C1.31210938 4.76871094 2.12421875 4.84992188 2.9609375 4.93359375 C5.125 5.25 5.125 5.25 7.125 6.25 C7.125 6.91 7.125 7.57 7.125 8.25 C6.465 8.25 5.805 8.25 5.125 8.25 C4.795 9.24 4.465 10.23 4.125 11.25 C3.795 9.93 3.465 8.61 3.125 7.25 C1.84625 7.188125 0.5675 7.12625 -0.75 7.0625 C-1.82894531 7.01029297 -1.82894531 7.01029297 -2.9296875 6.95703125 C-3.89261719 7.10205078 -3.89261719 7.10205078 -4.875 7.25 C-5.865 8.735 -5.865 8.735 -6.875 10.25 C-8.8203125 10.54296875 -8.8203125 10.54296875 -11 10.4375 C-12.918125 10.3446875 -12.918125 10.3446875 -14.875 10.25 C-14.75 7.5 -14.75 7.5 -13.875 4.25 C-9.3753766 0.40885807 -5.73877858 -0.28916326 0 0 Z " fill="#F1F4FC" transform="translate(197.875,189.75)"/>
<path d="M0 0 C2 2 2 2 2.265625 4.6796875 C2.26046875 5.73414063 2.2553125 6.78859375 2.25 7.875 C2.25515625 8.92429688 2.2603125 9.97359375 2.265625 11.0546875 C2.00401665 13.95546242 1.64269075 15.61616258 0 18 C-2.8125 19.0625 -2.8125 19.0625 -6 19 C-8.875 17.25 -8.875 17.25 -11 14 C-11.69516945 10.20459905 -11.7223902 6.79254856 -11 3 C-7.67998327 -1.29649224 -5.07097168 -1.57763563 0 0 Z M-5 1 C-6.88649506 4.26992478 -7.67972144 7.23672696 -8 11 C-7.01 12.485 -7.01 12.485 -6 14 C-6 14.99 -6 15.98 -6 17 C-4.35 17 -2.7 17 -1 17 C1.92771895 12.60842158 1.49796325 7.48981624 0.5 2.5 C0.335 2.005 0.17 1.51 0 1 C-1.65 1 -3.3 1 -5 1 Z " fill="#212DBC" transform="translate(151,197)"/>
<path d="M0 0 C0.33 10.23 0.66 20.46 1 31 C1.66 30.67 2.32 30.34 3 30 C3 32.31 3 34.62 3 37 C2.34 37 1.68 37 1 37 C1.37125 37.9075 1.7425 38.815 2.125 39.75 C3 43 3 43 2.3125 45.25 C1 47 1 47 -2 49 C-5.6875 48.625 -5.6875 48.625 -9 48 C-9 47.67 -9 47.34 -9 47 C-5.535 46.505 -5.535 46.505 -2 46 C-2 32.14 -2 18.28 -2 4 C-4.31 3.67 -6.62 3.34 -9 3 C-6.17608653 1.48718921 -3.28056633 0 0 0 Z " fill="#1421BD" transform="translate(178,175)"/>
<path d="M0 0 C0.99 0.33 1.98 0.66 3 1 C3.12117188 1.68707031 3.24234375 2.37414062 3.3671875 3.08203125 C3.53476562 3.98308594 3.70234375 4.88414062 3.875 5.8125 C4.03742188 6.70582031 4.19984375 7.59914062 4.3671875 8.51953125 C4.91188449 11.22727846 4.91188449 11.22727846 7 14 C6.67 14.99 6.34 15.98 6 17 C6 16.34 6 15.68 6 15 C4.68 15.33 3.36 15.66 2 16 C2 16.66 2 17.32 2 18 C1.34 18 0.68 18 0 18 C0 16.68 0 15.36 0 14 C-0.66 13.67 -1.32 13.34 -2 13 C-3.1845131 9.44646071 -3.26641894 6.72986522 -3 3 C-1.5 1.0625 -1.5 1.0625 0 0 Z " fill="#FBFDF7" transform="translate(290,199)"/>
<path d="M0 0 C-0.75 6.75 -0.75 6.75 -3 9 C-6.5 9.25 -6.5 9.25 -10 9 C-10.66 8.34 -11.32 7.68 -12 7 C-11.9375 4.5 -11.9375 4.5 -11 2 C-7.38684234 -0.16789459 -4.14058636 -0.19258541 0 0 Z " fill="#343CB6" transform="translate(202,207)"/>
<path d="M0 0 C0.33 0 0.66 0 1 0 C1.01458252 0.85231201 1.02916504 1.70462402 1.04418945 2.58276367 C1.10543285 5.76071175 1.17962029 8.93802546 1.26245117 12.11547852 C1.29559806 13.48775958 1.32366171 14.86017362 1.34643555 16.23266602 C1.38016766 18.21137766 1.4340149 20.18971376 1.48828125 22.16796875 C1.51446533 23.35672607 1.54064941 24.5454834 1.56762695 25.77026367 C2.37922349 31.83272024 5.93233366 35.16785746 10.1875 39.3125 C11.08855469 40.19550781 11.98960938 41.07851562 12.91796875 41.98828125 C13.60503906 42.65214844 14.29210938 43.31601563 15 44 C14.67 44.66 14.34 45.32 14 46 C13.34 46 12.68 46 12 46 C12 45.34 12 44.68 12 44 C10.35 43.67 8.7 43.34 7 43 C7 41.35 7 39.7 7 38 C5.35 37.67 3.7 37.34 2 37 C0.20461087 32.38417257 -0.23613605 28.57246192 -0.1953125 23.6328125 C-0.1924826 22.95322479 -0.18965271 22.27363708 -0.18673706 21.57345581 C-0.17562964 19.42378392 -0.15054391 17.27454386 -0.125 15.125 C-0.11495795 13.65886023 -0.10583425 12.19271386 -0.09765625 10.7265625 C-0.07572159 7.15090369 -0.04125814 3.57549406 0 0 Z " fill="#1926BB" transform="translate(47,185)"/>
<path d="M0 0 C0.33 0 0.66 0 1 0 C1.33 4.29 1.66 8.58 2 13 C2.99 12.34 3.98 11.68 5 11 C5.99 11.33 6.98 11.66 8 12 C7.67 12.99 7.34 13.98 7 15 C9.31 15.66 11.62 16.32 14 17 C13.67 17.99 13.34 18.98 13 20 C12.1646875 19.4740625 12.1646875 19.4740625 11.3125 18.9375 C8.41468152 17.76270872 6.9482975 18.06895868 4 19 C1.41073669 21.58926331 1.62601957 23.02705279 1.375 26.625 C1.30023438 27.62789062 1.22546875 28.63078125 1.1484375 29.6640625 C1.09945312 30.43492187 1.05046875 31.20578125 1 32 C0.67 32 0.34 32 0 32 C-0.22304441 30.25181409 -0.4278645 28.50129677 -0.625 26.75 C-0.74101562 25.77546875 -0.85703125 24.8009375 -0.9765625 23.796875 C-1.00112537 20.86570607 -0.5312717 19.45471036 1 17 C1.66 17.33 2.32 17.66 3 18 C2.04134491 15.66924071 2.04134491 15.66924071 -1 14 C-0.67 9.38 -0.34 4.76 0 0 Z " fill="#E7EAFE" transform="translate(139,179)"/>
<path d="M0 0 C5.75 4.625 5.75 4.625 8 8 C10.40076457 8.58425381 10.40076457 8.58425381 13 8 C15.31912231 6.28401246 15.31912231 6.28401246 17.3125 4 C18.00988281 3.2575 18.70726563 2.515 19.42578125 1.75 C19.94527344 1.1725 20.46476562 0.595 21 0 C22.0625 3.75 22.0625 3.75 21.5 6 C19.25446711 8.99404386 16.44128108 10.67854807 13 12 C9.0625 12.25 9.0625 12.25 6 12 C5.731875 11.4225 5.46375 10.845 5.1875 10.25 C4.06360928 7.96004727 4.06360928 7.96004727 2.4375 6 C0.96806014 3.95556194 0.43835352 2.45477972 0 0 Z " fill="#1F2CC1" transform="translate(65,232)"/>
<path d="M0 0 C2 2 2 2 2.125 4.625 C2.08375 5.40875 2.0425 6.1925 2 7 C1.154375 6.649375 0.30875 6.29875 -0.5625 5.9375 C-5.61662278 4.55910288 -10.03553343 5.60994936 -15 7 C-15 4 -15 4 -13.125 1.8125 C-8.84265211 -0.67126178 -4.86259591 -0.74014734 0 0 Z " fill="#F8FAF9" transform="translate(342,190)"/>
<path d="M0 0 C1.47906892 -0.02689216 2.95827483 -0.04634621 4.4375 -0.0625 C5.26121094 -0.07410156 6.08492187 -0.08570313 6.93359375 -0.09765625 C9 0 9 0 10 1 C10.14193337 4.00331018 10.04236378 6.99217134 10 10 C15.61 10.66 21.22 11.32 27 12 C27 13.32 27 14.64 27 16 C26.319375 15.690625 25.63875 15.38125 24.9375 15.0625 C19.969251 13.26547377 16.00944762 12.31880728 11.0625 14.4375 C10.051875 14.953125 9.04125 15.46875 8 16 C7.67 11.38 7.34 6.76 7 2 C4.69 1.67 2.38 1.34 0 1 C0 0.67 0 0.34 0 0 Z " fill="#1D29B7" transform="translate(132,177)"/>
<path d="M0 0 C1.2684375 0.07734375 1.2684375 0.07734375 2.5625 0.15625 C3.8309375 0.20265625 3.8309375 0.20265625 5.125 0.25 C7.61938968 0.66573161 9.38047946 1.40360858 11.5625 2.65625 C11.5625 3.64625 11.5625 4.63625 11.5625 5.65625 C12.5525 5.98625 13.5425 6.31625 14.5625 6.65625 C14.2325 7.64625 13.9025 8.63625 13.5625 9.65625 C12.5725 9.32625 11.5825 8.99625 10.5625 8.65625 C10.2325 7.99625 9.9025 7.33625 9.5625 6.65625 C4.2825 6.65625 -0.9975 6.65625 -6.4375 6.65625 C-2.4375 0.65625 -2.4375 0.65625 0 0 Z " fill="#0B21D0" transform="translate(333.4375,183.34375)"/>
<path d="M0 0 C2.64 0 5.28 0 8 0 C8.33 1.65 8.66 3.3 9 5 C6.87562952 5.50266794 4.75048274 6.0020561 2.625 6.5 C1.44164062 6.7784375 0.25828125 7.056875 -0.9609375 7.34375 C-4 8 -4 8 -6 8 C-6.33 7.01 -6.66 6.02 -7 5 C-5.35 5 -3.7 5 -2 5 C-1.34 3.35 -0.68 1.7 0 0 Z " fill="#1C29B4" transform="translate(193,196)"/>
<path d="M0 0 C2.31 0.33 4.62 0.66 7 1 C7 1.66 7 2.32 7 3 C7.99 3 8.98 3 10 3 C10.33 4.32 10.66 5.64 11 7 C9.81921875 6.98839844 8.6384375 6.97679687 7.421875 6.96484375 C5.86458492 6.95546248 4.30729312 6.94636264 2.75 6.9375 C1.97269531 6.92912109 1.19539062 6.92074219 0.39453125 6.91210938 C-0.35957031 6.90888672 -1.11367187 6.90566406 -1.890625 6.90234375 C-2.58188477 6.89710693 -3.27314453 6.89187012 -3.98535156 6.88647461 C-6.09973898 7.00562029 -7.96641515 7.42381763 -10 8 C-10 7.01 -10 6.02 -10 5 C-6.7 4.34 -3.4 3.68 0 3 C0 2.01 0 1.02 0 0 Z " fill="#2232C8" transform="translate(196,184)"/>
<path d="M0 0 C0.33 0 0.66 0 1 0 C1 3.63 1 7.26 1 11 C2.60875 10.9071875 2.60875 10.9071875 4.25 10.8125 C8.10866187 11.00543309 9.28817788 11.39665076 12 14 C9.42009199 16.57990801 7.49755539 16.31598838 3.97265625 16.4609375 C2 16 2 16 0.26171875 14.33203125 C-1.29138026 11.46144269 -1.33668259 9.55876292 -1.25 6.3125 C-1.23453125 5.33925781 -1.2190625 4.36601562 -1.203125 3.36328125 C-1 1 -1 1 0 0 Z " fill="#1E2DBB" transform="translate(330,199)"/>
<path d="M0 0 C0.33 0.99 0.66 1.98 1 3 C-0.41488448 5.76239351 -1.80363095 7.80363095 -4 10 C-4.56629169 15.33657932 -4.10285204 20.76145282 -3 26 C-6.74314466 22.76728416 -7.8249219 19.54652326 -8.375 14.6875 C-7.81294167 9.16059308 -5.93839291 4.72301592 -1.75 1 C-1.1725 0.67 -0.595 0.34 0 0 Z " fill="#D3DDFC" transform="translate(259,191)"/>
<path d="M0 0 C0.33 0 0.66 0 1 0 C1.33 2.97 1.66 5.94 2 9 C5.63 9.33 9.26 9.66 13 10 C10.68006182 14.76197836 10.68006182 14.76197836 7.5 15.875 C5 16 5 16 2 15 C-0.35119399 11.47320901 -0.21443452 9.97120515 -0.125 5.8125 C-0.10695313 4.72582031 -0.08890625 3.63914063 -0.0703125 2.51953125 C-0.04710937 1.68808594 -0.02390625 0.85664063 0 0 Z " fill="#1F2FC6" transform="translate(295,200)"/>
<path d="M0 0 C1.98 0.66 3.96 1.32 6 2 C6.69990898 8.41583231 5.52907555 11.85702667 1.7265625 17.07421875 C-0.56448441 19.62961723 -2.73703876 20.96178506 -6 22 C-6.66 21.67 -7.32 21.34 -8 21 C-6.68322266 19.78763672 -6.68322266 19.78763672 -5.33984375 18.55078125 C-4.20495508 17.47216805 -3.07088245 16.39269579 -1.9375 15.3125 C-1.35677734 14.78205078 -0.77605469 14.25160156 -0.17773438 13.70507812 C1.38410522 12.19868846 2.77211051 10.78994554 4 9 C3.95551136 5.08499952 2.50389985 2.93936069 0 0 Z " fill="#2532C1" transform="translate(95,210)"/>
<path d="M0 0 C1.32 0.66 2.64 1.32 4 2 C3.01 2.33 2.02 2.66 1 3 C0.26676204 5.01508358 0.26676204 5.01508358 0 7 C0.99 7 1.98 7 3 7 C2.67 8.32 2.34 9.64 2 11 C-7.01531729 11.63019694 -7.01531729 11.63019694 -11.125 9 C-11.74375 8.34 -12.3625 7.68 -13 7 C-11.68 7 -10.36 7 -9 7 C-9 7.66 -9 8.32 -9 9 C-7.35 8.34 -5.7 7.68 -4 7 C-4 6.01 -4 5.02 -4 4 C-3.01 4 -2.02 4 -1 4 C-0.67 2.68 -0.34 1.36 0 0 Z " fill="#DBE2F7" transform="translate(152,211)"/>
<path d="M0 0 C0.33 0 0.66 0 1 0 C1.33 4.62 1.66 9.24 2 14 C2.66 13.34 3.32 12.68 4 12 C4.33 13.98 4.66 15.96 5 18 C4.34 18 3.68 18 3 18 C2.855625 18.804375 2.71125 19.60875 2.5625 20.4375 C2 23 2 23 1 24 C-0.46948963 24.28469564 -1.95191805 24.5044763 -3.4375 24.6875 C-4.24058594 24.79449219 -5.04367188 24.90148437 -5.87109375 25.01171875 C-8 25 -8 25 -10 23 C-9.67 22.67 -9.34 22.34 -9 22 C-6.03 22 -3.06 22 0 22 C0 14.74 0 7.48 0 0 Z " fill="#2332CE" transform="translate(226,199)"/>
<path d="M0 0 C0.33 0 0.66 0 1 0 C1 13.86 1 27.72 1 42 C3.64 42 6.28 42 9 42 C9 41.34 9 40.68 9 40 C10.65 40.66 12.3 41.32 14 42 C14 42.33 14 42.66 14 43 C9.05 43.33 4.1 43.66 -1 44 C-0.67 29.48 -0.34 14.96 0 0 Z " fill="#2635B5" transform="translate(130,179)"/>
<path d="M0 0 C2.64 1.32 5.28 2.64 8 4 C7.01 4.99 6.02 5.98 5 7 C7.31 7.66 9.62 8.32 12 9 C12 9.33 12 9.66 12 10 C1.24719689 10.68879166 1.24719689 10.68879166 -2.6875 8.0625 C-3.450625 7.381875 -4.21375 6.70125 -5 6 C-5 5.67 -5 5.34 -5 5 C-3.7934375 5.0309375 -3.7934375 5.0309375 -2.5625 5.0625 C-0.06645115 5.29633621 -0.06645115 5.29633621 1 4 C0.34 3.67 -0.32 3.34 -1 3 C-0.67 2.01 -0.34 1.02 0 0 Z " fill="#E9EEFC" transform="translate(261,212)"/>
<path d="M0 0 C1.5778125 0.2475 1.5778125 0.2475 3.1875 0.5 C9.10578512 1.25711395 15.04521179 1.08169679 21 1 C21 1.99 21 2.98 21 4 C13.36939066 5.5652532 6.83411898 6.20561168 0 2 C0 1.34 0 0.68 0 0 Z " fill="#1325C7" transform="translate(288,220)"/>
<path d="M0 0 C4.48803828 2.24401914 4.48803828 2.24401914 6.125 5.9375 C7.29198825 8.51741203 8.41087273 10.61630909 10 13 C7.36 12.34 4.72 11.68 2 11 C1.34 11.99 0.68 12.98 0 14 C0 9.38 0 4.76 0 0 Z " fill="#1022CD" transform="translate(248,207)"/>
<path d="M0 0 C0 0.66 0 1.32 0 2 C0.66 2.33 1.32 2.66 2 3 C2 4.98 2 6.96 2 9 C0.84935451 7.27403177 -0.29830974 5.54605039 -1.4375 3.8125 C-5.55470561 0.90033018 -10.11306392 1.40386312 -15 2 C-17.75909477 2.94828878 -17.75909477 2.94828878 -20 4 C-19.67 2.68 -19.34 1.36 -19 0 C-4.90322581 -2.4516129 -4.90322581 -2.4516129 0 0 Z " fill="#1E29B7" transform="translate(245,189)"/>
<path d="M0 0 C0.99 0.33 1.98 0.66 3 1 C3.6875 3.0625 3.6875 3.0625 4 5 C3.34 5 2.68 5 2 5 C2 5.66 2 6.32 2 7 C1.34 7.639375 0.68 8.27875 0 8.9375 C-2.34807292 10.88012332 -2.34807292 10.88012332 -2 14 C-4.64458379 15.32229189 -6.67761301 15.09677194 -9.625 15.0625 C-10.62789062 15.05347656 -11.63078125 15.04445312 -12.6640625 15.03515625 C-13.43492187 15.02355469 -14.20578125 15.01195312 -15 15 C-15 14.67 -15 14.34 -15 14 C-11.92382812 13.70703125 -11.92382812 13.70703125 -8.84765625 13.4140625 C-8.23792969 13.27742187 -7.62820312 13.14078125 -7 13 C-6.67 12.34 -6.34 11.68 -6 11 C-6.66 10.34 -7.32 9.68 -8 9 C-7.05125 8.814375 -6.1025 8.62875 -5.125 8.4375 C-1.61628301 7.26599195 -1.61628301 7.26599195 -0.625 3.375 C-0.315625 1.704375 -0.315625 1.704375 0 0 Z " fill="#C5CCF6" transform="translate(202,207)"/>
<path d="M0 0 C2.75564971 0.07654583 4.44165334 0.45527156 6.44140625 2.40625 C7.67656183 3.89828979 8.84312275 5.44647913 10 7 C7.625 6.6875 7.625 6.6875 5 6 C4.34 5.01 3.68 4.02 3 3 C2.649375 3.639375 2.29875 4.27875 1.9375 4.9375 C-0.77184206 7.82163832 -3.15858911 7.7100822 -7 8 C-6.02133662 6.85373678 -5.04205413 5.70800212 -4.0625 4.5625 C-3.51722656 3.92441406 -2.97195312 3.28632813 -2.41015625 2.62890625 C-1.63204305 1.73008851 -0.84063472 0.84063472 0 0 Z " fill="#F1F9FC" transform="translate(74,159)"/>
<path d="M0 0 C1.04449911 3.13349732 0.93423645 3.98968256 0 7 C0.804375 7.28875 1.60875 7.5775 2.4375 7.875 C5 9 5 9 6 11 C3.525 12.485 3.525 12.485 1 14 C-1 12.4375 -1 12.4375 -3 10 C-3.74195584 3.95835962 -3.74195584 3.95835962 -1.5 1.0625 C-1.005 0.711875 -0.51 0.36125 0 0 Z " fill="#2739C1" transform="translate(90,193)"/>
<path d="M0 0 C4.95 0 9.9 0 15 0 C15 0.66 15 1.32 15 2 C11.7 2 8.4 2 5 2 C4.67 2.66 4.34 3.32 4 4 C4.62648437 4.06058594 5.25296875 4.12117187 5.8984375 4.18359375 C6.71570313 4.26738281 7.53296875 4.35117188 8.375 4.4375 C9.59316406 4.55931641 9.59316406 4.55931641 10.8359375 4.68359375 C13 5 13 5 15 6 C15 6.66 15 7.32 15 8 C14.34 8 13.68 8 13 8 C12.67 8.99 12.34 9.98 12 11 C11.67 9.68 11.34 8.36 11 7 C8.36 6.67 5.72 6.34 3 6 C2.814375 5.071875 2.814375 5.071875 2.625 4.125 C2.12802644 1.80879168 2.12802644 1.80879168 0 0 Z " fill="#EBF0FD" transform="translate(190,190)"/>
<path d="M0 0 C2.64 0 5.28 0 8 0 C7.125 6.75 7.125 6.75 6 9 C4 8 4 8 3 5 C0.98491642 4.26676204 0.98491642 4.26676204 -1 4 C-0.67 2.68 -0.34 1.36 0 0 Z " fill="#D8DDF9" transform="translate(308,209)"/>
<path d="M0 0 C0.86625 0.4640625 0.86625 0.4640625 1.75 0.9375 C3.84294184 1.92583364 5.74535275 2.5168613 8 3 C8.33 4.98 8.66 6.96 9 9 C6.36 9 3.72 9 1 9 C1.020625 8.2575 1.04125 7.515 1.0625 6.75 C1.00671312 4.29537721 0.6930096 2.33890739 0 0 Z " fill="#EBF0FC" transform="translate(307,192)"/>
<path d="M0 0 C1.32 0.33 2.64 0.66 4 1 C4 1.66 4 2.32 4 3 C3.01 3.66 2.02 4.32 1 5 C1.33 5.99 1.66 6.98 2 8 C0.68 7.67 -0.64 7.34 -2 7 C-2 7.66 -2 8.32 -2 9 C-4.64 8.67 -7.28 8.34 -10 8 C-10 7.34 -10 6.68 -10 6 C-9.16855469 5.72736328 -9.16855469 5.72736328 -8.3203125 5.44921875 C-7.59585937 5.19785156 -6.87140625 4.94648438 -6.125 4.6875 C-5.40570313 4.44386719 -4.68640625 4.20023438 -3.9453125 3.94921875 C-1.66005095 3.03664453 -1.66005095 3.03664453 0 0 Z " fill="#FAFBF8" transform="translate(344,211)"/>
<path d="M0 0 C2.75 -0.25 2.75 -0.25 6 0 C7.33333333 1.33333333 8.66666667 2.66666667 10 4 C13.64721696 4.80765878 13.64721696 4.80765878 17 5 C17 5.66 17 6.32 17 7 C11.555 7.495 11.555 7.495 6 8 C6.33 6.35 6.66 4.7 7 3 C4.36 2.67 1.72 2.34 -1 2 C-0.67 1.34 -0.34 0.68 0 0 Z " fill="#3141C7" transform="translate(264,196)"/>
<path d="M0 0 C0.94875 0.04125 1.8975 0.0825 2.875 0.125 C1.885 0.62 1.885 0.62 0.875 1.125 C0.26432856 2.98244207 0.26432856 2.98244207 -0.125 5.125 C-0.45833333 6.45833333 -0.79166667 7.79166667 -1.125 9.125 C-1.785 9.125 -2.445 9.125 -3.125 9.125 C-3.785 9.785 -4.445 10.445 -5.125 11.125 C-5.17899736 9.66707116 -5.21779177 8.20857288 -5.25 6.75 C-5.28480469 5.53183594 -5.28480469 5.53183594 -5.3203125 4.2890625 C-4.98150185 0.53504049 -3.58663539 0.14346542 0 0 Z " fill="#0E22CE" transform="translate(301.125,197.875)"/>
<path d="M0 0 C0.66 0.33 1.32 0.66 2 1 C0.73786958 4.78639125 -0.65345351 5.04104596 -4 7 C-5.93798263 9.77260299 -5.93798263 9.77260299 -7 12 C-8.64295195 13.36244796 -10.30824337 14.69864875 -12 16 C-12.66 15.34 -13.32 14.68 -14 14 C-9.38 9.38 -4.76 4.76 0 0 Z " fill="#E6EEFE" transform="translate(66,167)"/>
<path d="M0 0 C2.4375 0.75 2.4375 0.75 5 2 C6.54719409 5.77890434 6.22101092 10.03664219 6.25 14.0625 C6.270625 14.78244141 6.29125 15.50238281 6.3125 16.24414062 C6.35181304 21.5366586 6.35181304 21.5366586 4.484375 23.99609375 C3.99453125 24.32738281 3.5046875 24.65867188 3 25 C2.34 24.67 1.68 24.34 1 24 C1.495 23.05125 1.99 22.1025 2.5 21.125 C4.47187648 16.46420104 4.75690439 11.98760156 4 7 C2.91139924 4.35154274 1.6492456 2.37079054 0 0 Z " fill="#2735B8" transform="translate(347,193)"/>
<path d="M0 0 C2.31 0 4.62 0 7 0 C8 5 8 5 9 10 C7.68 10.99 6.36 11.98 5 13 C4.34 12.67 3.68 12.34 3 12 C3.66 11.34 4.32 10.68 5 10 C4.76236269 5.60370982 2.85856441 3.22741144 0 0 Z " fill="#0F2FC5" transform="translate(112,192)"/>
<path d="M0 0 C8.18829114 2.54746835 8.18829114 2.54746835 10.1875 6.125 C10.455625 6.74375 10.72375 7.3625 11 8 C11.99 8 12.98 8 14 8 C13.34 9.32 12.68 10.64 12 12 C7.47384007 8.32167983 3.60575001 4.58913637 0 0 Z " fill="#1B2AC4" transform="translate(87,168)"/>
<path d="M0 0 C3.63 0 7.26 0 11 0 C11 0.66 11 1.32 11 2 C10.01 2 9.02 2 8 2 C7.67 2.66 7.34 3.32 7 4 C4.93359375 4.4140625 4.93359375 4.4140625 2.4375 4.625 C1.61121094 4.69976562 0.78492188 4.77453125 -0.06640625 4.8515625 C-1.02353516 4.92503906 -1.02353516 4.92503906 -2 5 C-1.34 3.35 -0.68 1.7 0 0 Z " fill="#FAFDF7" transform="translate(295,191)"/>
<path d="M0 0 C0.99 0.33 1.98 0.66 3 1 C2.67 1.99 2.34 2.98 2 4 C-1.68575115 5.59532513 -5.92387986 5.14674929 -9.875 5.125 C-10.91720703 5.13080078 -10.91720703 5.13080078 -11.98046875 5.13671875 C-16.09187906 5.12897598 -19.9674223 4.79640249 -24 4 C-24 3.67 -24 3.34 -24 3 C-23.37955811 2.98018066 -22.75911621 2.96036133 -22.11987305 2.93994141 C-19.30865463 2.84468155 -16.49817834 2.73500698 -13.6875 2.625 C-12.71103516 2.5940625 -11.73457031 2.563125 -10.72851562 2.53125 C-9.32182617 2.47324219 -9.32182617 2.47324219 -7.88671875 2.4140625 C-7.02264404 2.3826416 -6.15856934 2.3512207 -5.26831055 2.31884766 C-2.72257555 2.12811963 -2.72257555 2.12811963 0 0 Z " fill="#1725C6" transform="translate(157,219)"/>
<path d="M0 0 C1.134375 0.020625 2.26875 0.04125 3.4375 0.0625 C3.4375 1.3825 3.4375 2.7025 3.4375 4.0625 C1.4375 6.0625 1.4375 6.0625 -1.1875 6.1875 C-1.97125 6.14625 -2.755 6.105 -3.5625 6.0625 C-3.94468767 4.40635343 -4.27645102 2.73792976 -4.5625 1.0625 C-3.5625 0.0625 -3.5625 0.0625 0 0 Z " fill="#0F21CD" transform="translate(196.5625,208.9375)"/>
<path d="M0 0 C1.74271938 2.297221 3.39911152 4.59866729 5 7 C4.67 7.99 4.34 8.98 4 10 C4 9.34 4 8.68 4 8 C2.68 8.33 1.36 8.66 0 9 C0 9.66 0 10.32 0 11 C-0.66 11 -1.32 11 -2 11 C-2 9.68 -2 8.36 -2 7 C-2.66 6.67 -3.32 6.34 -4 6 C-4 5.34 -4 4.68 -4 4 C-2.68 4 -1.36 4 0 4 C0 2.68 0 1.36 0 0 Z " fill="#F4F8FC" transform="translate(292,206)"/>
<path d="M0 0 C1.25425781 0.01804688 2.50851562 0.03609375 3.80078125 0.0546875 C5.22970703 0.08949219 5.22970703 0.08949219 6.6875 0.125 C7.0175 0.785 7.3475 1.445 7.6875 2.125 C6.74648438 2.07859375 5.80546875 2.0321875 4.8359375 1.984375 C-2.9185334 1.41195753 -2.9185334 1.41195753 -10 3.9375 C-11.1446875 5.0203125 -11.1446875 5.0203125 -12.3125 6.125 C-13.240625 6.99125 -13.240625 6.99125 -14.1875 7.875 C-14.744375 8.49375 -14.744375 8.49375 -15.3125 9.125 C-15.6425 7.145 -15.9725 5.165 -16.3125 3.125 C-14.9925 3.455 -13.6725 3.785 -12.3125 4.125 C-12.3125 3.465 -12.3125 2.805 -12.3125 2.125 C-8.09353134 0.07601713 -4.65877854 -0.08707997 0 0 Z " fill="#3944C0" transform="translate(336.3125,188.875)"/>
<path d="M0 0 C1.9375 0.6875 1.9375 0.6875 4 2 C5.22112541 6.05561652 5.01922393 9.86709378 4.75 14.0625 C4.64945313 15.87427734 4.64945313 15.87427734 4.546875 17.72265625 C3.98799964 21.07191647 3.27645827 22.54607589 1 25 C0.34 24.67 -0.32 24.34 -1 24 C-0.505 23.278125 -0.01 22.55625 0.5 21.8125 C3.08225438 16.69694392 2.5358788 10.56061253 2 5 C1.06966493 2.19802133 1.06966493 2.19802133 0 0 Z " fill="#2E3CBB" transform="translate(159,194)"/>
<path d="M0 0 C0.33 0.99 0.66 1.98 1 3 C-1 6 -1 6 -4 7 C-6.56634861 7.22718496 -9.11678107 7.41608184 -11.6875 7.5625 C-12.7403418 7.62727539 -12.7403418 7.62727539 -13.81445312 7.69335938 C-15.54275206 7.7991736 -17.2713511 7.90006581 -19 8 C-19.66 6.68 -20.32 5.36 -21 4 C-20.17822266 4.23976562 -20.17822266 4.23976562 -19.33984375 4.484375 C-13.8731703 5.68905095 -8.02010518 5.88884628 -2.875 3.625 C-0.90330748 2.12579415 -0.90330748 2.12579415 0 0 Z " fill="#2630BE" transform="translate(279,216)"/>
<path d="M0 0 C0.33 0 0.66 0 1 0 C1.28571429 8.57142857 1.28571429 8.57142857 -1 12 C-2.65 12 -4.3 12 -6 12 C-6 11.01 -6 10.02 -6 9 C-4.35 8.67 -2.7 8.34 -1 8 C-1 6.68 -1 5.36 -1 4 C-1.99 4 -2.98 4 -4 4 C-4 3.34 -4 2.68 -4 2 C-2.68 2 -1.36 2 0 2 C0 1.34 0 0.68 0 0 Z " fill="#0F23CC" transform="translate(151,202)"/>
<path d="M0 0 C0.66 0.33 1.32 0.66 2 1 C2 1.66 2 2.32 2 3 C1.01 3.66 0.02 4.32 -1 5 C-1.51104922 7.80810144 -1.51104922 7.80810144 -1.51171875 11.1015625 C-1.56489258 12.91914063 -1.56489258 12.91914063 -1.61914062 14.7734375 C-1.64169922 16.04445312 -1.66425781 17.31546875 -1.6875 18.625 C-1.72166016 19.90375 -1.75582031 21.1825 -1.79101562 22.5 C-1.87372479 25.66657932 -1.94280085 28.83287364 -2 32 C-2.33 32 -2.66 32 -3 32 C-3.08704 27.41678618 -3.14040632 22.83378466 -3.1875 18.25 C-3.21263672 16.94804687 -3.23777344 15.64609375 -3.26367188 14.3046875 C-3.27333984 13.05429688 -3.28300781 11.80390625 -3.29296875 10.515625 C-3.31653442 8.78747559 -3.31653442 8.78747559 -3.34057617 7.02441406 C-2.9698672 3.73241214 -2.22615202 2.39304923 0 0 Z " fill="#ECF1FE" transform="translate(51,182)"/>
<path d="M0 0 C2.68092691 2.68092691 2.38670257 4.39167363 2.625 8.125 C2.69976562 9.22070312 2.77453125 10.31640625 2.8515625 11.4453125 C2.90054688 12.28835937 2.94953125 13.13140625 3 14 C5.64 14.33 8.28 14.66 11 15 C11 15.33 11 15.66 11 16 C9.72125 16.144375 8.4425 16.28875 7.125 16.4375 C4.74307106 16.70642746 3.15547309 16.92226346 1 18 C0.10395632 11.95170514 -0.11269443 6.1105424 0 0 Z " fill="#1F2FCA" transform="translate(235,206)"/>
<path d="M0 0 C1.43088528 2.86177057 0.59991697 4.93375773 0 8 C0.99 8.33 1.98 8.66 3 9 C2.34 10.32 1.68 11.64 1 13 C-4 7.63414634 -4 7.63414634 -4 4.8125 C-2.90492256 2.82767214 -1.70630634 1.48374464 0 0 Z " fill="#9AD5FA" transform="translate(97,194)"/>
<path d="M0 0 C2.31 0.66 4.62 1.32 7 2 C7 3.32 7 4.64 7 6 C4.36 5.67 1.72 5.34 -1 5 C-1 1 -1 1 0 0 Z " fill="#F7FCF8" transform="translate(147,190)"/>
<path d="M0 0 C2.4375 0.375 2.4375 0.375 5 1 C5.33 1.66 5.66 2.32 6 3 C5 4.5625 5 4.5625 3 6 C0.23385218 5.96726452 -2.26030547 5.49404328 -5 5 C-4.34 4.01 -3.68 3.02 -3 2 C-2.01 2 -1.02 2 0 2 C0 1.34 0 0.68 0 0 Z " fill="#F9F9FC" transform="translate(269,215)"/>
<path d="M0 0 C3.59031327 0.79599193 5.68953875 2.24991566 8.51953125 4.55859375 C6.76953125 5.24609375 6.76953125 5.24609375 4.51953125 5.55859375 C3.93171875 5.08421875 3.34390625 4.60984375 2.73828125 4.12109375 C-0.01574515 2.18163854 -1.89453448 2.06966127 -5.23046875 1.87109375 C-6.70773437 1.77248047 -6.70773437 1.77248047 -8.21484375 1.671875 C-9.33632813 1.61580078 -9.33632813 1.61580078 -10.48046875 1.55859375 C-6.58362006 -1.03930538 -4.50479382 -0.53424348 0 0 Z " fill="#D2D9F9" transform="translate(305.48046875,189.44140625)"/>
<path d="M0 0 C0 0.99 0 1.98 0 3 C0.66 3 1.32 3 2 3 C2 3.66 2 4.32 2 5 C-0.64 5.33 -3.28 5.66 -6 6 C-6 5.34 -6 4.68 -6 4 C-6.66 3.67 -7.32 3.34 -8 3 C-3.375 0 -3.375 0 0 0 Z " fill="#1425D4" transform="translate(317,217)"/>
<path d="M0 0 C1.45792884 -0.05399736 2.91642712 -0.09279177 4.375 -0.125 C5.18710938 -0.14820313 5.99921875 -0.17140625 6.8359375 -0.1953125 C9 0 9 0 11 2 C9.1875 4.5 9.1875 4.5 7 7 C6.01 7 5.02 7 4 7 C4 5.68 4 4.36 4 3 C2.07977297 1.22590192 2.07977297 1.22590192 0 0 Z " fill="#0E27C9" transform="translate(100,211)"/>
<path d="M0 0 C1.98 0.66 3.96 1.32 6 2 C6 2.66 6 3.32 6 4 C6.99 4 7.98 4 9 4 C9 4.66 9 5.32 9 6 C9.66 6 10.32 6 11 6 C11.66 7.32 12.32 8.64 13 10 C8.87731395 10 7.79669528 8.32277298 4.8125 5.5625 C3.91144531 4.73878906 3.01039062 3.91507813 2.08203125 3.06640625 C1.39496094 2.38449219 0.70789062 1.70257813 0 1 C0 0.67 0 0.34 0 0 Z " fill="#D4DCF7" transform="translate(59,226)"/>
<path d="M0 0 C0.66 0.99 1.32 1.98 2 3 C3.96361864 3.57748803 3.96361864 3.57748803 6.125 3.6875 C8.043125 3.8421875 8.043125 3.8421875 10 4 C10 4.33 10 4.66 10 5 C8.56344146 5.08131463 7.1255517 5.13933559 5.6875 5.1875 C4.48673828 5.23970703 4.48673828 5.23970703 3.26171875 5.29296875 C0.47730041 4.9322928 -0.13680545 4.00371481 -2 2 C-5.09501208 1.74734595 -7.20129973 1.60064987 -10 3 C-9.67 2.01 -9.34 1.02 -9 0 C-5.85135005 -1.57432497 -3.35512575 -0.71895552 0 0 Z " fill="#3E4BC2" transform="translate(306,197)"/>
<path d="M0 0 C2.64 0 5.28 0 8 0 C7.67 1.32 7.34 2.64 7 4 C4.36 4.33 1.72 4.66 -1 5 C-0.67 3.35 -0.34 1.7 0 0 Z " fill="#1522C8" transform="translate(193,196)"/>
<path d="M0 0 C0.66 0.33 1.32 0.66 2 1 C1.91433603 3.912575 1.42089045 5.56798024 -0.625 7.66796875 C-2.38391375 9.16091772 -4.16313019 10.60436262 -6 12 C-6 11.01 -6 10.02 -6 9 C-5.525625 8.54625 -5.05125 8.0925 -4.5625 7.625 C-2.55563236 5.53785765 -2.51490734 3.79521125 -2 1 C-1.34 0.67 -0.68 0.34 0 0 Z " fill="#9EDBFC" transform="translate(116,197)"/>
<path d="M0 0 C0.66 0 1.32 0 2 0 C2.33 0.99 2.66 1.98 3 3 C0.03 5.97 -2.94 8.94 -6 12 C-6.33 10.68 -6.66 9.36 -7 8 C-6.01 8 -5.02 8 -4 8 C-4 7.01 -4 6.02 -4 5 C-3.01 5 -2.02 5 -1 5 C-0.67 3.35 -0.34 1.7 0 0 Z " fill="#2935C0" transform="translate(72,156)"/>
<path d="M0 0 C2 2 2 2 2 5 C-1.01031744 5.93423645 -1.86650268 6.04449911 -5 5 C-5 4.01 -5 3.02 -5 2 C-5.66 1.67 -6.32 1.34 -7 1 C-3.625 0.375 -3.625 0.375 0 0 Z " fill="#0F20CE" transform="translate(281,202)"/>
<path d="M0 0 C2.27076842 -0.02699725 4.54162821 -0.04639453 6.8125 -0.0625 C8.07707031 -0.07410156 9.34164063 -0.08570313 10.64453125 -0.09765625 C14 0 14 0 17 1 C16.67 1.66 16.34 2.32 16 3 C15.11957031 2.97679687 14.23914063 2.95359375 13.33203125 2.9296875 C12.17058594 2.91164062 11.00914062 2.89359375 9.8125 2.875 C8.66394531 2.85179687 7.51539063 2.82859375 6.33203125 2.8046875 C3.08259628 2.99515848 0.91339479 3.60639873 -2 5 C-1.34 3.35 -0.68 1.7 0 0 Z " fill="#3641C2" transform="translate(258,188)"/>
<path d="M0 0 C3.71888239 0.50712033 6.73454239 1.11608215 10 3 C9.67 5.64 9.34 8.28 9 11 C8.773125 10.443125 8.54625 9.88625 8.3125 9.3125 C6.63575448 6.35823409 4.45423315 4.33152149 2 2 C1.34 1.34 0.68 0.68 0 0 Z " fill="#2330C4" transform="translate(308,190)"/>
<path d="M0 0 C0.66 0.33 1.32 0.66 2 1 C1.34 1.66 0.68 2.32 0 3 C-0.33333333 6.5 -0.33333333 6.5 0 10 C0.66 10.66 1.32 11.32 2 12 C1.34 12 0.68 12 0 12 C-0.33 12.99 -0.66 13.98 -1 15 C-3.49491849 10.30368284 -2.99613805 7.06370175 -2 2 C-1.34 1.34 -0.68 0.68 0 0 Z " fill="#2530B6" transform="translate(263,198)"/>
<path d="M0 0 C0.33 0.66 0.66 1.32 1 2 C1.99 2.33 2.98 2.66 4 3 C3.67 3.99 3.34 4.98 3 6 C2.01 5.67 1.02 5.34 0 5 C-0.33 4.34 -0.66 3.68 -1 3 C-4.04581269 2.53045739 -4.04581269 2.53045739 -7.5625 2.375 C-8.76003906 2.30023438 -9.95757812 2.22546875 -11.19140625 2.1484375 C-12.11824219 2.09945312 -13.04507812 2.05046875 -14 2 C-14 1.67 -14 1.34 -14 1 C-12.41693353 0.83081732 -10.83353281 0.66476064 -9.25 0.5 C-8.36828125 0.4071875 -7.4865625 0.314375 -6.578125 0.21875 C-4 0 -4 0 0 0 Z " fill="#1E29C1" transform="translate(344,187)"/>
<path d="M0 0 C2.64 0.66 5.28 1.32 8 2 C8 2.66 8 3.32 8 4 C10.97 4 13.94 4 17 4 C17 4.33 17 4.66 17 5 C6.24719689 5.68879166 6.24719689 5.68879166 2.3125 3.0625 C1.549375 2.381875 0.78625 1.70125 0 1 C0 0.67 0 0.34 0 0 Z " fill="#BCC6F5" transform="translate(290,217)"/>
<path d="M0 0 C2.64 0 5.28 0 8 0 C7.67 0.99 7.34 1.98 7 3 C3.9375 4.1875 3.9375 4.1875 1 5 C0.67 3.35 0.34 1.7 0 0 Z " fill="#1024C3" transform="translate(263,210)"/>
<path d="M0 0 C1.98 0.66 3.96 1.32 6 2 C6.36923077 9.50769231 6.36923077 9.50769231 4.5 12 C4.005 12.33 3.51 12.66 3 13 C2.34 12.67 1.68 12.34 1 12 C1.515625 11.608125 2.03125 11.21625 2.5625 10.8125 C4.27251955 9.06633723 4.27251955 9.06633723 3.875 6.5625 C2.96102274 3.8858523 1.82469613 2.14203458 0 0 Z " fill="#222CB9" transform="translate(95,210)"/>
<path d="M0 0 C2.00948183 0.01778303 4.01668765 0.16786374 6.01953125 0.33203125 C6.01953125 1.32203125 6.01953125 2.31203125 6.01953125 3.33203125 C3.37953125 3.00203125 0.73953125 2.67203125 -1.98046875 2.33203125 C-2.31046875 3.65203125 -2.64046875 4.97203125 -2.98046875 6.33203125 C-3.64046875 6.00203125 -4.30046875 5.67203125 -4.98046875 5.33203125 C-3.05235036 0.51173527 -3.05235036 0.51173527 0 0 Z " fill="#CED8F9" transform="translate(275.98046875,208.66796875)"/>
<path d="M0 0 C4.24822374 0.47202486 6.19989709 2.96655518 9 6 C8.67 6.99 8.34 7.98 8 9 C6.66368764 7.6905332 5.33102075 6.37734515 4 5.0625 C3.2575 4.33160156 2.515 3.60070312 1.75 2.84765625 C0 1 0 1 0 0 Z " fill="#222EBD" transform="translate(78,159)"/>
<path d="M0 0 C0.33 0.66 0.66 1.32 1 2 C3.02463255 2.65213292 3.02463255 2.65213292 5 3 C4.67 3.99 4.34 4.98 4 6 C-2.0546875 6.9765625 -2.0546875 6.9765625 -4 7 C-4.66 6.34 -5.32 5.68 -6 5 C-4.02 4.67 -2.04 4.34 0 4 C-0.33 3.01 -0.66 2.02 -1 1 C-0.67 0.67 -0.34 0.34 0 0 Z " fill="#F9FCF8" transform="translate(308,212)"/>
<path d="M0 0 C0.66 0 1.32 0 2 0 C2 0.66 2 1.32 2 2 C3.32 2 4.64 2 6 2 C6 2.99 6 3.98 6 5 C4.35 5.66 2.7 6.32 1 7 C0.67 4.69 0.34 2.38 0 0 Z M-2 8 C-1.34 8 -0.68 8 0 8 C-0.33 8.66 -0.66 9.32 -1 10 C-1.33 9.34 -1.66 8.68 -2 8 Z " fill="#FCFCF7" transform="translate(155,206)"/>
<path d="M0 0 C1.32 0.33 2.64 0.66 4 1 C3.690625 1.61875 3.38125 2.2375 3.0625 2.875 C1.5960722 7.18802294 1.33380974 11.4759996 1 16 C0.67 16 0.34 16 0 16 C0 10.72 0 5.44 0 0 Z " fill="#2B35BD" transform="translate(285,195)"/>
<path d="M0 0 C0.33 0 0.66 0 1 0 C1.33 2.31 1.66 4.62 2 7 C2.99 7 3.98 7 5 7 C5 7.66 5 8.32 5 9 C3.33388095 9.042721 1.66617115 9.04063832 0 9 C-1 8 -1 8 -1.125 4.5 C-1 1 -1 1 0 0 Z " fill="#0F1DDE" transform="translate(180,195)"/>
<path d="M0 0 C0.66 0.66 1.32 1.32 2 2 C1.34 2 0.68 2 0 2 C0 4.31 0 6.62 0 9 C-1.32 9 -2.64 9 -4 9 C-3.47731534 6.23723823 -2.89130413 3.6739124 -2 1 C-1.34 0.67 -0.68 0.34 0 0 Z " fill="#0C22C8" transform="translate(93,192)"/>
<path d="M0 0 C0.33 0.66 0.66 1.32 1 2 C3.64 2 6.28 2 9 2 C9 1.34 9 0.68 9 0 C11.475 0.99 11.475 0.99 14 2 C14 2.33 14 2.66 14 3 C9.05 3.33 4.1 3.66 -1 4 C-0.67 2.68 -0.34 1.36 0 0 Z " fill="#303CBD" transform="translate(130,219)"/>
<path d="M0 0 C4 5 4 5 8 10 C5.69 9.34 3.38 8.68 1 8 C0.67 5.36 0.34 2.72 0 0 Z " fill="#1F29C4" transform="translate(48,214)"/>
<path d="M0 0 C0.66 0.33 1.32 0.66 2 1 C0.55746343 4.36591866 -1.33264727 6.51047079 -4 9 C-4.625 7.125 -4.625 7.125 -5 5 C-4.34 4.34 -3.68 3.68 -3 3 C-2.67 2.34 -2.34 1.68 -2 1 C-1.34 1.33 -0.68 1.66 0 2 C0 1.34 0 0.68 0 0 Z " fill="#2C38C7" transform="translate(52,177)"/>
<path d="M0 0 C0.99 0.66 1.98 1.32 3 2 C1.20866022 2.05391993 -0.58313899 2.09275571 -2.375 2.125 C-3.37273437 2.14820313 -4.37046875 2.17140625 -5.3984375 2.1953125 C-8 2 -8 2 -10 0 C-6.25105057 -1.24964981 -3.84864723 -0.75598428 0 0 Z " fill="#C5CFF8" transform="translate(270,220)"/>
<path d="M0 0 C0.99 0.66 1.98 1.32 3 2 C2.64950425 5.24208567 2.43778819 6.61527704 -0.0625 8.8125 C-0.701875 9.204375 -1.34125 9.59625 -2 10 C-1.835 9.4225 -1.67 8.845 -1.5 8.25 C-0.85537969 5.73335631 -0.85537969 5.73335631 -1 2 C-0.67 1.34 -0.34 0.68 0 0 Z " fill="#D5DDFE" transform="translate(97,213)"/>
<path d="M0 0 C0.33 0 0.66 0 1 0 C1.33 2.31 1.66 4.62 2 7 C4.475 7.99 4.475 7.99 7 9 C7 9.33 7 9.66 7 10 C4.36 10 1.72 10 -1 10 C-0.67 6.7 -0.34 3.4 0 0 Z " fill="#E3ECFD" transform="translate(169,211)"/>
<path d="M0 0 C1.32 0.66 2.64 1.32 4 2 C3.34 2.66 2.68 3.32 2 4 C1.53709779 6.66242821 1.53709779 6.66242821 1.375 9.625 C1.30023438 10.62789062 1.22546875 11.63078125 1.1484375 12.6640625 C1.09945312 13.43492187 1.05046875 14.20578125 1 15 C0.67 15 0.34 15 0 15 C-0.19601608 13.25093341 -0.38147403 11.50068154 -0.5625 9.75 C-0.66691406 8.77546875 -0.77132812 7.8009375 -0.87890625 6.796875 C-0.98974468 4.2368648 -0.77738092 2.41851841 0 0 Z " fill="#CEDCF5" transform="translate(139,196)"/>
<path d="M0 0 C2.70931419 0.15481795 4.46584039 0.48172081 6.4453125 2.40234375 C7.67679642 3.89771708 8.8429837 5.4462924 10 7 C8.35 6.67 6.7 6.34 5 6 C4.67 5.01 4.34 4.02 4 3 C2.35 2.67 0.7 2.34 -1 2 C-0.67 1.34 -0.34 0.68 0 0 Z " fill="#D0D9FD" transform="translate(74,159)"/>
<path d="M0 0 C0.99 0.33 1.98 0.66 3 1 C1.8125 3.4375 1.8125 3.4375 0 6 C-2.6875 6.8125 -2.6875 6.8125 -5 7 C-4.34 5.68 -3.68 4.36 -3 3 C-2.34 3 -1.68 3 -1 3 C-0.67 2.01 -0.34 1.02 0 0 Z " fill="#2A38C3" transform="translate(271,209)"/>
<path d="M0 0 C-0.33 0.99 -0.66 1.98 -1 3 C-1.73605469 3.06058594 -2.47210938 3.12117187 -3.23046875 3.18359375 C-4.20628906 3.26738281 -5.18210938 3.35117188 -6.1875 3.4375 C-7.15042969 3.51871094 -8.11335937 3.59992188 -9.10546875 3.68359375 C-11.78649602 3.97666151 -14.3662986 4.42703754 -17 5 C-16.67 4.34 -16.34 3.68 -16 3 C-13.71027598 2.3689509 -11.39101298 1.84306657 -9.0625 1.375 C-7.79535156 1.11460937 -6.52820313 0.85421875 -5.22265625 0.5859375 C-2 0 -2 0 0 0 Z " fill="#A2AEF0" transform="translate(202,201)"/>
<path d="M0 0 C3.16115776 1.36983503 3.9927092 1.9890638 6 5 C4.02 5 2.04 5 0 5 C-0.5625 3.0625 -0.5625 3.0625 -1 1 C-0.67 0.67 -0.34 0.34 0 0 Z " fill="#F7FCEF" transform="translate(89,209)"/>
<path d="M0 0 C3.96 0 7.92 0 12 0 C12 0.33 12 0.66 12 1 C11.31292969 1.13277344 10.62585938 1.26554688 9.91796875 1.40234375 C8.56638672 1.66724609 8.56638672 1.66724609 7.1875 1.9375 C5.84751953 2.19853516 5.84751953 2.19853516 4.48046875 2.46484375 C1.88602829 2.97741153 1.88602829 2.97741153 -1 4 C-0.67 2.68 -0.34 1.36 0 0 Z " fill="#454DBD" transform="translate(226,189)"/>
<path d="M0 0 C1.14926266 0.95421808 2.29430541 1.91352045 3.4375 2.875 C4.07558594 3.40867188 4.71367188 3.94234375 5.37109375 4.4921875 C7 6 7 6 8 8 C6.68 8.33 5.36 8.66 4 9 C3.67 7.35 3.34 5.7 3 4 C2.01 3.67 1.02 3.34 0 3 C0 2.01 0 1.02 0 0 Z " fill="#D5DAFA" transform="translate(88,170)"/>
<path d="M0 0 C1.65 0 3.3 0 5 0 C5 1.32 5 2.64 5 4 C3.02 4 1.04 4 -1 4 C-0.67 2.68 -0.34 1.36 0 0 Z " fill="#0E1DE8" transform="translate(145,206)"/>
<path d="M0 0 C0.99 0 1.98 0 3 0 C3.33 1.98 3.66 3.96 4 6 C2.68 6 1.36 6 0 6 C0 4.02 0 2.04 0 0 Z " fill="#131BE0" transform="translate(230,202)"/>
<path d="M0 0 C0.5534764 2.07553648 1 3.84365964 1 6 C2.65 6 4.3 6 6 6 C6 6.33 6 6.66 6 7 C3.36 7 0.72 7 -2 7 C-1.125 1.125 -1.125 1.125 0 0 Z " fill="#C2CEFA" transform="translate(185,193)"/>
<path d="M0 0 C2.31 0.66 4.62 1.32 7 2 C7 2.66 7 3.32 7 4 C5.02 4.66 3.04 5.32 1 6 C0.67 4.02 0.34 2.04 0 0 Z " fill="#1420C7" transform="translate(99,180)"/>
<path d="M0 0 C1.485 0.99 1.485 0.99 3 2 C3.375 4.5 3.375 4.5 3 7 C2.01 7.66 1.02 8.32 0 9 C-1.53445094 5.93109813 -0.54984289 3.29905734 0 0 Z " fill="#E2E9FC" transform="translate(96,178)"/>
<path d="M0 0 C1.23556641 0.01740234 1.23556641 0.01740234 2.49609375 0.03515625 C3.32238281 0.04417969 4.14867187 0.05320313 5 0.0625 C5.63808594 0.07410156 6.27617187 0.08570313 6.93359375 0.09765625 C6.93359375 0.75765625 6.93359375 1.41765625 6.93359375 2.09765625 C0.87890625 3.07421875 0.87890625 3.07421875 -1.06640625 3.09765625 C-1.72640625 2.43765625 -2.38640625 1.77765625 -3.06640625 1.09765625 C-2.06640625 0.09765625 -2.06640625 0.09765625 0 0 Z " fill="#303ACB" transform="translate(219.06640625,220.90234375)"/>
<path d="M0 0 C0.66 0.33 1.32 0.66 2 1 C1.67 5.29 1.34 9.58 1 14 C0.67 14 0.34 14 0 14 C-0.19456705 12.04235617 -0.38044247 10.08384679 -0.5625 8.125 C-0.66691406 7.03445312 -0.77132813 5.94390625 -0.87890625 4.8203125 C-1 2 -1 2 0 0 Z " fill="#202CC6" transform="translate(319,194)"/>
<path d="M0 0 C1.62490954 -0.02698189 3.24994633 -0.04638757 4.875 -0.0625 C5.77992188 -0.07410156 6.68484375 -0.08570313 7.6171875 -0.09765625 C10 0 10 0 12 1 C12 1.66 12 2.32 12 3 C11.34 3 10.68 3 10 3 C9.67 3.99 9.34 4.98 9 6 C8.67 4.68 8.34 3.36 8 2 C5.36 1.67 2.72 1.34 0 1 C0 0.67 0 0.34 0 0 Z " fill="#BBC4EB" transform="translate(193,195)"/>
<path d="M0 0 C2.64 0 5.28 0 8 0 C7.67 0.99 7.34 1.98 7 3 C4.69 3 2.38 3 0 3 C0 2.01 0 1.02 0 0 Z " fill="#C6D1F8" transform="translate(168,178)"/>
<path d="M0 0 C2.97 0.495 2.97 0.495 6 1 C6.33 1.99 6.66 2.98 7 4 C5.35 4 3.7 4 2 4 C1.34 2.68 0.68 1.36 0 0 Z " fill="#1023C3" transform="translate(73,155)"/>
<path d="M0 0 C2 0 2 0 3.5625 1.1875 C5.32681541 3.4120716 5.62403791 5.21788056 6 8 C1.3125 4.38671875 1.3125 4.38671875 0 3 C0 2.01 0 1.02 0 0 Z " fill="#C2CBF4" transform="translate(49,214)"/>
<path d="M0 0 C2.64 0 5.28 0 8 0 C8 0.99 8 1.98 8 3 C2.25 2.25 2.25 2.25 0 0 Z " fill="#FDFCF8" transform="translate(264,191)"/>
<path d="M0 0 C2.875 -0.125 2.875 -0.125 6 0 C6.66 0.66 7.32 1.32 8 2 C5.69 2.66 3.38 3.32 1 4 C0.67 2.68 0.34 1.36 0 0 Z " fill="#EBEFFE" transform="translate(235,190)"/>
<path d="M0 0 C0.33 0.66 0.66 1.32 1 2 C-0.4375 4.625 -0.4375 4.625 -2 7 C-3.32 6.67 -4.64 6.34 -6 6 C-4.02 4.02 -2.04 2.04 0 0 Z " fill="#2E38B9" transform="translate(97,186)"/>
<path d="M0 0 C0 1.98 0 3.96 0 6 C-0.66 5.34 -1.32 4.68 -2 4 C-4.32275177 3.59952556 -6.65739357 3.2602896 -9 3 C-6.17608653 1.48718921 -3.28056633 0 0 0 Z " fill="#1427C5" transform="translate(178,175)"/>
<path d="M0 0 C5.75 1.625 5.75 1.625 8 5 C7.01 5.33 6.02 5.66 5 6 C3.35 4.02 1.7 2.04 0 0 Z " fill="#232EBD" transform="translate(87,168)"/>
<path d="M0 0 C0.66 0.33 1.32 0.66 2 1 C1.75 3.375 1.75 3.375 1 6 C-1.0625 7.3125 -1.0625 7.3125 -3 8 C-2.01 5.36 -1.02 2.72 0 0 Z " fill="#2D3BBD" transform="translate(351,210)"/>
<path d="M0 0 C2 2 2 2 2.1953125 3.9453125 C2.13020833 5.96354167 2.06510417 7.98177083 2 10 C0.68 10 -0.64 10 -2 10 C-2 9.01 -2 8.02 -2 7 C-1.34 7 -0.68 7 0 7 C0 4.69 0 2.38 0 0 Z " fill="#E0E6FC" transform="translate(86,194)"/>
<path d="M0 0 C2.64 0 5.28 0 8 0 C8.33 1.32 8.66 2.64 9 4 C8.278125 3.67 7.55625 3.34 6.8125 3 C3.98302573 1.99396471 1.97104534 1.83022598 -1 2 C-0.67 1.34 -0.34 0.68 0 0 Z " fill="#C4CFF7" transform="translate(144,195)"/>
<path d="M0 0 C2.31 0 4.62 0 7 0 C7.33 0.66 7.66 1.32 8 2 C6.68 2.99 5.36 3.98 4 5 C2.68 3.35 1.36 1.7 0 0 Z " fill="#1937CD" transform="translate(112,192)"/>
<path d="M0 0 C1.98 1.65 3.96 3.3 6 5 C5.01 5.99 4.02 6.98 3 8 C0 2.25 0 2.25 0 0 Z " fill="#3C43C9" transform="translate(65,232)"/>
<path d="M0 0 C2.12038635 2.61514317 4.13091744 5.19637616 6 8 C4.35 7.67 2.7 7.34 1 7 C0.67 4.69 0.34 2.38 0 0 Z " fill="#2A36C5" transform="translate(252,212)"/>
<path d="M0 0 C0.33 0 0.66 0 1 0 C1 2.64 1 5.28 1 8 C0.01 8.33 -0.98 8.66 -2 9 C-1.34 6.03 -0.68 3.06 0 0 Z " fill="#1D2DB6" transform="translate(282,209)"/>
<path d="M0 0 C0.99 0.33 1.98 0.66 3 1 C3.6875 3.0625 3.6875 3.0625 4 5 C3.34 5 2.68 5 2 5 C2 5.66 2 6.32 2 7 C1.34 7 0.68 7 0 7 C0 4.69 0 2.38 0 0 Z " fill="#D8E4F5" transform="translate(202,207)"/>
<path d="M0 0 C0.33 0 0.66 0 1 0 C1.06058594 0.62648437 1.12117188 1.25296875 1.18359375 1.8984375 C1.26738281 2.71570313 1.35117187 3.53296875 1.4375 4.375 C1.51871094 5.18710938 1.59992188 5.99921875 1.68359375 6.8359375 C1.89090114 9.04272805 1.89090114 9.04272805 3 11 C2.34 11.66 1.68 12.32 1 13 C0 12 0 12 -0.09765625 9.27734375 C-0.08605469 8.17519531 -0.07445312 7.07304687 -0.0625 5.9375 C-0.05347656 4.83277344 -0.04445313 3.72804687 -0.03515625 2.58984375 C-0.02355469 1.73519531 -0.01195312 0.88054687 0 0 Z " fill="#3743B9" transform="translate(295,200)"/>
<path d="M0 0 C0.66 0.33 1.32 0.66 2 1 C2.4140625 3.06640625 2.4140625 3.06640625 2.625 5.5625 C2.69976562 6.38878906 2.77453125 7.21507812 2.8515625 8.06640625 C2.92503906 9.02353516 2.92503906 9.02353516 3 10 C1 9 1 9 -0.1875 5.5625 C-1 2 -1 2 0 0 Z " fill="#DFE7FC" transform="translate(243,192)"/>
<path d="M0 0 C2.31 0 4.62 0 7 0 C7 0.66 7 1.32 7 2 C4.69 2.66 2.38 3.32 0 4 C0 2.68 0 1.36 0 0 Z " fill="#D9E2FF" transform="translate(218,190)"/>
<path d="M0 0 C2.31 0 4.62 0 7 0 C7 1.32 7 2.64 7 4 C4.08482708 2.92598892 2.22189824 2.22189824 0 0 Z " fill="#2C37C4" transform="translate(152,189)"/>
<path d="M0 0 C0.33 0 0.66 0 1 0 C1.66 2.31 2.32 4.62 3 7 C2.01 7.33 1.02 7.66 0 8 C-0.66 8.66 -1.32 9.32 -2 10 C-1.34 6.7 -0.68 3.4 0 0 Z " fill="#2936CF" transform="translate(99,181)"/>
<path d="M0 0 C-3.625 3 -3.625 3 -7 3 C-7 2.01 -7 1.02 -7 0 C-3.86650268 -1.04449911 -3.01031744 -0.93423645 0 0 Z " fill="#101DEA" transform="translate(292,185)"/>
</svg>
