<svg xmlns="http://www.w3.org/2000/svg" viewBox="0 0 64 64">
  <g fill="#4a4f58">
    <path d="M31.9 18a14 14 0 1 0 14 14 14 14 0 0 0-14-14zm0 22a8 8 0 1 1 8-8 8 8 0 0 1-8 8z"/>
    <path d="M58 35.5v-7l-6.5-1.6a21.8 21.8 0 0 0-1.7-4.1l3.6-5.7-5-5-5.7 3.6a21.8 21.8 0 0 0-4.1-1.7L37.5 6h-7l-1.6 6.5a21.8 21.8 0 0 0-4.1 1.7L19.1 9 14 14l3.6 5.7a21.8 21.8 0 0 0-1.7 4.1L9 26.5v7l6.5 1.6a21.8 21.8 0 0 0 1.7 4.1L13.6 45l5 5 5.7-3.6a21.8 21.8 0 0 0 4.1 1.7L30.5 58h7l1.6-6.5a21.8 21.8 0 0 0 4.1-1.7L47.9 55 53 50l-3.6-5.7a21.8 21.8 0 0 0 1.7-4.1z" opacity="0.15"/>
  </g>
</svg>
