<?xml version="1.0" encoding="UTF-8"?>
<svg version="1.1" xmlns="http://www.w3.org/2000/svg" width="256" height="256">
<path d="M0 0 C0.9384375 -0.020625 1.876875 -0.04125 2.84375 -0.0625 C12.94192263 -0.11829101 20.66989717 1.59137378 28.09716797 8.75146484 C32.24311428 13.56316983 35.23956237 19.0329366 38.3125 24.5625 C39.04406606 25.84878151 39.77750167 27.13400133 40.51269531 28.41821289 C42.02325317 31.05889226 43.52678847 33.70338178 45.02587891 36.35058594 C48.43251854 42.34640535 51.97013408 48.26362461 55.5 54.1875 C56.80893558 56.39432854 58.11753415 58.601357 59.42578125 60.80859375 C61.98145818 65.11580468 64.5421809 69.41997113 67.10546875 73.72265625 C68.29950834 75.7317535 69.49352015 77.74086725 70.6875 79.75 C71.23760742 80.67031006 71.78771484 81.59062012 72.35449219 82.53881836 C72.8549707 83.3819458 73.35544922 84.22507324 73.87109375 85.09375 C74.3086499 85.82787109 74.74620605 86.56199219 75.19702148 87.31835938 C78.7065962 93.75651267 78.12021389 102.25016148 76.6015625 109.23046875 C72.27853215 122.0332894 63.65269201 131.84730799 54.25 141.25 C68.44 141.58 82.63 141.91 97.25 142.25 C97.25 150.17 97.25 158.09 97.25 166.25 C22.01 166.25 -53.23 166.25 -130.75 166.25 C-130.75 158.33 -130.75 150.41 -130.75 142.25 C-112.27 141.92 -93.79 141.59 -74.75 141.25 C-83.68938193 127.91972661 -83.68938193 127.91972661 -92.63916016 114.59643555 C-93.77283231 112.90177832 -94.90615553 111.2068876 -96.0390625 109.51171875 C-96.61293701 108.66113892 -97.18681152 107.81055908 -97.77807617 106.9342041 C-105.05269449 96.02537352 -110.52182775 87.73129809 -108.75 74.25 C-105.06605125 57.98461223 -91.73966759 42.27558237 -78.75 32.25 C-78.24017578 31.85103516 -77.73035156 31.45207031 -77.20507812 31.04101562 C-55.0116046 13.78502315 -28.6113142 0.15465575 0 0 Z M-80.859375 60.79296875 C-88.39718166 70.55818512 -88.39718166 70.55818512 -90.75 82.25 C-88.44758068 85.49044201 -86.55985762 86.5297619 -82.75 87.25 C-54.78162834 89.77751211 -27.31885551 73.89946697 -6.65234375 56.69140625 C1.72475857 49.50388144 13.11771386 38.27809483 14.54296875 26.9140625 C14.49076172 25.90472656 14.49076172 25.90472656 14.4375 24.875 C14.375625 23.67875 14.31375 22.4825 14.25 21.25 C-14.97877395 4.54784346 -62.72959603 39.75210738 -80.859375 60.79296875 Z M27.25 44.25 C26.05462427 45.85399906 24.89503792 47.48468775 23.75 49.125 C8.93938357 69.66028732 -9.87187477 83.85396103 -32.75 94.25 C-33.36842773 94.53359375 -33.98685547 94.8171875 -34.62402344 95.109375 C-47.91144958 101.099666 -62.1674449 104.60759669 -76.75 105.25 C-71.7747339 117.18221911 -71.7747339 117.18221911 -62.0625 124.75 C-38.46408652 128.50074121 -12.77509566 115.38135075 5.8125 102.1875 C19.04506609 92.46422705 32.55131914 80.28785001 37.1875 63.9453125 C37.27278986 58.90254977 35.4205506 56.01073167 32.8125 51.8125 C32.37873047 51.08095703 31.94496094 50.34941406 31.49804688 49.59570312 C30.43220277 47.80367952 29.34335615 46.02537168 28.25 44.25 C27.92 44.25 27.59 44.25 27.25 44.25 Z M49.25 82.25 C47.95613637 83.96804626 46.66733023 85.69013843 45.40454102 87.43115234 C24.57510549 116.13431254 -5.52245133 133.35717281 -39.75 141.25 C-39.75 141.58 -39.75 141.91 -39.75 142.25 C-31.61298254 142.45979487 -23.47711961 142.61906864 -15.33805466 142.71630955 C-11.55739666 142.76301448 -7.77860649 142.82620653 -3.99902344 142.92895508 C-0.34189161 143.027737 3.31346042 143.08075765 6.97182465 143.10389519 C8.35773461 143.12035204 9.74356198 143.1524867 11.12870026 143.20157051 C22.28517743 143.58069297 28.24375429 140.62343121 36.25 133.25 C37.34880241 132.27706245 37.34880241 132.27706245 38.46980286 131.2844696 C40.2311442 129.70172586 41.90369907 128.06453783 43.5625 126.375 C44.1493457 125.78203125 44.73619141 125.1890625 45.34082031 124.578125 C51.53985642 118.15511038 57.09121405 111.06137121 59.25 102.25 C59.04896093 96.71514305 57.23496534 92.85778813 54.25 88.3125 C53.88132812 87.72404297 53.51265625 87.13558594 53.1328125 86.52929688 C52.20932288 85.07833964 51.23417046 83.66050292 50.25 82.25 C49.92 82.25 49.59 82.25 49.25 82.25 Z " fill="#00007F" transform="translate(144.75,-0.25)"/>
<path d="M0 0 C75.24 0 150.48 0 228 0 C228 7.92 228 15.84 228 24 C152.76 24 77.52 24 0 24 C0 16.08 0 8.16 0 0 Z " fill="#D40000" transform="translate(14,142)"/>
<path d="M0 0 C7.92 0 15.84 0 24 0 C24 22.44 24 44.88 24 68 C16.08 68 8.16 68 0 68 C0 45.56 0 23.12 0 0 Z " fill="#D40000" transform="translate(161,188)"/>
<path d="M0 0 C7.92 0 15.84 0 24 0 C24 22.44 24 44.88 24 68 C16.08 68 8.16 68 0 68 C0 45.56 0 23.12 0 0 Z " fill="#D30000" transform="translate(116,188)"/>
<path d="M0 0 C7.92 0 15.84 0 24 0 C24 22.44 24 44.88 24 68 C16.08 68 8.16 68 0 68 C0 45.56 0 23.12 0 0 Z " fill="#D40000" transform="translate(71,188)"/>
<path d="M0 0 C7.59 0 15.18 0 23 0 C23 22.44 23 44.88 23 68 C15.41 68 7.82 68 0 68 C0 45.56 0 23.12 0 0 Z " fill="#D40000" transform="translate(207,188)"/>
<path d="M0 0 C7.59 0 15.18 0 23 0 C23 22.44 23 44.88 23 68 C15.41 68 7.82 68 0 68 C0 45.56 0 23.12 0 0 Z " fill="#D40000" transform="translate(26,188)"/>
</svg>
